G04*
G04 #@! TF.GenerationSoftware,Altium Limited,Altium Designer,21.7.2 (23)*
G04*
G04 Layer_Color=128*
%FSAX25Y25*%
%MOIN*%
G70*
G04*
G04 #@! TF.SameCoordinates,459872EF-3558-45D4-9662-87612B2E164F*
G04*
G04*
G04 #@! TF.FilePolarity,Positive*
G04*
G01*
G75*
%ADD17C,0.00200*%
D17*
X0058050Y-0040000D02*
X0061950D01*
X0060000Y-0041950D02*
Y-0038050D01*
X0058050Y-0030000D02*
X0061950D01*
X0060000Y-0031950D02*
Y-0028050D01*
X0058050Y-0020000D02*
X0061950D01*
X0060000Y-0021950D02*
Y-0018050D01*
X0058050Y-0050000D02*
X0061950D01*
X0060000Y-0051950D02*
Y-0048050D01*
X0058050Y-0010000D02*
X0061950D01*
X0060000Y-0011950D02*
Y-0008050D01*
X0058050Y0000000D02*
X0061950D01*
X0060000Y-0001950D02*
Y0001950D01*
X0031909Y-0019532D02*
X0033091D01*
X0032500Y-0020122D02*
Y-0018941D01*
X0028366Y-0023469D02*
X0029547D01*
X0028957Y-0024059D02*
Y-0022878D01*
X0035453Y-0023469D02*
X0036634D01*
X0036043Y-0024059D02*
Y-0022878D01*
X0035453Y-0019532D02*
X0036634D01*
X0036043Y-0020122D02*
Y-0018941D01*
X0031909Y-0023469D02*
X0033091D01*
X0032500Y-0024059D02*
Y-0022878D01*
X0028366Y-0019532D02*
X0029547D01*
X0028957Y-0020122D02*
Y-0018941D01*
X-0001950Y0000000D02*
X0001950D01*
X0000000Y-0001950D02*
Y0001950D01*
X-0001950Y-0010000D02*
X0001950D01*
X0000000Y-0011950D02*
Y-0008050D01*
X-0001950Y-0020000D02*
X0001950D01*
X0000000Y-0021950D02*
Y-0018050D01*
X-0001950Y-0040000D02*
X0001950D01*
X0000000Y-0041950D02*
Y-0038050D01*
X-0001950Y-0030000D02*
X0001950D01*
X0000000Y-0031950D02*
Y-0028050D01*
X-0001950Y-0050000D02*
X0001950D01*
X0000000Y-0051950D02*
Y-0048050D01*
M02*
