G04*
G04 #@! TF.GenerationSoftware,Altium Limited,Altium Designer,21.7.2 (23)*
G04*
G04 Layer_Color=2752767*
%FSAX25Y25*%
%MOIN*%
G70*
G04*
G04 #@! TF.SameCoordinates,459872EF-3558-45D4-9662-87612B2E164F*
G04*
G04*
G04 #@! TF.FilePolarity,Positive*
G04*
G01*
G75*
%ADD17C,0.00200*%
%ADD18C,0.00267*%
D17*
X0059200Y-0040800D02*
Y-0039200D01*
X0060800D01*
Y-0040800D01*
X0059200D01*
Y-0030800D02*
Y-0029200D01*
X0060800D01*
Y-0030800D01*
X0059200D01*
Y-0020800D02*
Y-0019200D01*
X0060800D01*
Y-0020800D01*
X0059200D01*
Y-0050800D02*
Y-0049200D01*
X0060800D01*
Y-0050800D01*
X0059200D01*
Y-0010800D02*
Y-0009200D01*
X0060800D01*
Y-0010800D01*
X0059200D01*
Y-0000800D02*
Y0000800D01*
X0060800D01*
Y-0000800D01*
X0059200D01*
X-0000800D02*
Y0000800D01*
X0000800D01*
Y-0000800D01*
X-0000800D01*
Y-0010800D02*
Y-0009200D01*
X0000800D01*
Y-0010800D01*
X-0000800D01*
Y-0020800D02*
Y-0019200D01*
X0000800D01*
Y-0020800D01*
X-0000800D01*
Y-0040800D02*
Y-0039200D01*
X0000800D01*
Y-0040800D01*
X-0000800D01*
Y-0030800D02*
Y-0029200D01*
X0000800D01*
Y-0030800D01*
X-0000800D01*
Y-0050800D02*
Y-0049200D01*
X0000800D01*
Y-0050800D01*
X-0000800D01*
D18*
X0033300Y-0019532D02*
X0032747Y-0018771D01*
X0031853Y-0019061D01*
Y-0020002D01*
X0032747Y-0020292D01*
X0033300Y-0019532D01*
X0029757Y-0023469D02*
X0029204Y-0022708D01*
X0028310Y-0022998D01*
Y-0023939D01*
X0029204Y-0024229D01*
X0029757Y-0023469D01*
X0036843D02*
X0036290Y-0022708D01*
X0035396Y-0022998D01*
Y-0023939D01*
X0036290Y-0024229D01*
X0036843Y-0023469D01*
Y-0019532D02*
X0036290Y-0018771D01*
X0035396Y-0019061D01*
Y-0020002D01*
X0036290Y-0020292D01*
X0036843Y-0019532D01*
X0033300Y-0023469D02*
X0032747Y-0022708D01*
X0031853Y-0022998D01*
Y-0023939D01*
X0032747Y-0024229D01*
X0033300Y-0023469D01*
X0029757Y-0019532D02*
X0029204Y-0018771D01*
X0028310Y-0019061D01*
Y-0020002D01*
X0029204Y-0020292D01*
X0029757Y-0019532D01*
M02*
