G04*
G04 #@! TF.GenerationSoftware,Altium Limited,Altium Designer,21.7.2 (23)*
G04*
G04 Layer_Physical_Order=1*
G04 Layer_Color=255*
%FSAX25Y25*%
%MOIN*%
G70*
G04*
G04 #@! TF.SameCoordinates,459872EF-3558-45D4-9662-87612B2E164F*
G04*
G04*
G04 #@! TF.FilePolarity,Positive*
G04*
G01*
G75*
%ADD12C,0.01000*%
%ADD13R,0.01575X0.00787*%
%ADD14R,0.09646X0.07677*%
%ADD15C,0.06000*%
%ADD16C,0.01968*%
G36*
X0026024Y-0025044D02*
X0026045Y-0025045D01*
X0026065Y-0025048D01*
X0026086Y-0025052D01*
X0026106Y-0025057D01*
X0026126Y-0025063D01*
X0026145Y-0025069D01*
X0026164Y-0025077D01*
X0026183Y-0025086D01*
X0026201Y-0025096D01*
X0026218Y-0025107D01*
X0026235Y-0025118D01*
X0026252Y-0025131D01*
X0026267Y-0025144D01*
X0026282Y-0025159D01*
X0026296Y-0025174D01*
X0026310Y-0025189D01*
X0026322Y-0025206D01*
X0026334Y-0025223D01*
X0026345Y-0025240D01*
X0026355Y-0025258D01*
X0026364Y-0025277D01*
X0026371Y-0025296D01*
X0026378Y-0025315D01*
X0026384Y-0025335D01*
X0026389Y-0025355D01*
X0026393Y-0025375D01*
X0026395Y-0025396D01*
X0026397Y-0025416D01*
X0026398Y-0025437D01*
X0026397Y-0025458D01*
X0026395Y-0025478D01*
X0026393Y-0025499D01*
X0026389Y-0025519D01*
X0026384Y-0025539D01*
X0026378Y-0025559D01*
X0026371Y-0025578D01*
X0026364Y-0025597D01*
X0026355Y-0025616D01*
X0026345Y-0025634D01*
X0026334Y-0025651D01*
X0026322Y-0025668D01*
X0026310Y-0025685D01*
X0026296Y-0025701D01*
X0026282Y-0025715D01*
X0026267Y-0025730D01*
X0026252Y-0025743D01*
X0026235Y-0025756D01*
X0026218Y-0025767D01*
X0026201Y-0025778D01*
X0026183Y-0025788D01*
X0026164Y-0025797D01*
X0026145Y-0025805D01*
X0026126Y-0025811D01*
X0026106Y-0025817D01*
X0026086Y-0025822D01*
X0026065Y-0025826D01*
X0026045Y-0025829D01*
X0026024Y-0025830D01*
X0026004Y-0025831D01*
X0023051D01*
Y-0025043D01*
X0026004D01*
X0026024Y-0025044D01*
D02*
G37*
G36*
Y-0023469D02*
X0026045Y-0023471D01*
X0026065Y-0023473D01*
X0026086Y-0023477D01*
X0026106Y-0023482D01*
X0026126Y-0023488D01*
X0026145Y-0023495D01*
X0026164Y-0023503D01*
X0026183Y-0023511D01*
X0026201Y-0023521D01*
X0026218Y-0023532D01*
X0026235Y-0023544D01*
X0026252Y-0023556D01*
X0026267Y-0023570D01*
X0026282Y-0023584D01*
X0026296Y-0023599D01*
X0026310Y-0023614D01*
X0026322Y-0023631D01*
X0026334Y-0023648D01*
X0026345Y-0023665D01*
X0026355Y-0023684D01*
X0026364Y-0023702D01*
X0026371Y-0023721D01*
X0026378Y-0023741D01*
X0026384Y-0023760D01*
X0026389Y-0023780D01*
X0026393Y-0023801D01*
X0026395Y-0023821D01*
X0026397Y-0023842D01*
X0026398Y-0023862D01*
X0026397Y-0023883D01*
X0026395Y-0023903D01*
X0026393Y-0023924D01*
X0026389Y-0023944D01*
X0026384Y-0023964D01*
X0026378Y-0023984D01*
X0026371Y-0024003D01*
X0026364Y-0024022D01*
X0026355Y-0024041D01*
X0026345Y-0024059D01*
X0026334Y-0024077D01*
X0026322Y-0024094D01*
X0026310Y-0024110D01*
X0026296Y-0024126D01*
X0026282Y-0024141D01*
X0026267Y-0024155D01*
X0026252Y-0024168D01*
X0026235Y-0024181D01*
X0026218Y-0024192D01*
X0026201Y-0024203D01*
X0026183Y-0024213D01*
X0026164Y-0024222D01*
X0026145Y-0024230D01*
X0026126Y-0024237D01*
X0026106Y-0024242D01*
X0026086Y-0024247D01*
X0026065Y-0024251D01*
X0026045Y-0024254D01*
X0026024Y-0024255D01*
X0026004Y-0024256D01*
X0023051D01*
Y-0023469D01*
X0026004D01*
X0026024Y-0023469D01*
D02*
G37*
G36*
Y-0021894D02*
X0026045Y-0021896D01*
X0026065Y-0021899D01*
X0026086Y-0021902D01*
X0026106Y-0021907D01*
X0026126Y-0021913D01*
X0026145Y-0021920D01*
X0026164Y-0021928D01*
X0026183Y-0021937D01*
X0026201Y-0021946D01*
X0026218Y-0021957D01*
X0026235Y-0021969D01*
X0026252Y-0021981D01*
X0026267Y-0021995D01*
X0026282Y-0022009D01*
X0026296Y-0022024D01*
X0026310Y-0022040D01*
X0026322Y-0022056D01*
X0026334Y-0022073D01*
X0026345Y-0022091D01*
X0026355Y-0022109D01*
X0026364Y-0022127D01*
X0026371Y-0022146D01*
X0026378Y-0022166D01*
X0026384Y-0022185D01*
X0026389Y-0022206D01*
X0026393Y-0022226D01*
X0026395Y-0022246D01*
X0026397Y-0022267D01*
X0026398Y-0022287D01*
X0026397Y-0022308D01*
X0026395Y-0022329D01*
X0026393Y-0022349D01*
X0026389Y-0022369D01*
X0026384Y-0022389D01*
X0026378Y-0022409D01*
X0026371Y-0022429D01*
X0026364Y-0022447D01*
X0026355Y-0022466D01*
X0026345Y-0022484D01*
X0026334Y-0022502D01*
X0026322Y-0022519D01*
X0026310Y-0022535D01*
X0026296Y-0022551D01*
X0026282Y-0022566D01*
X0026267Y-0022580D01*
X0026252Y-0022593D01*
X0026235Y-0022606D01*
X0026218Y-0022618D01*
X0026201Y-0022628D01*
X0026183Y-0022638D01*
X0026164Y-0022647D01*
X0026145Y-0022655D01*
X0026126Y-0022662D01*
X0026106Y-0022668D01*
X0026086Y-0022672D01*
X0026065Y-0022676D01*
X0026045Y-0022679D01*
X0026024Y-0022681D01*
X0026004Y-0022681D01*
X0023051D01*
Y-0021894D01*
X0026004D01*
X0026024Y-0021894D01*
D02*
G37*
G36*
Y-0020319D02*
X0026045Y-0020321D01*
X0026065Y-0020324D01*
X0026086Y-0020327D01*
X0026106Y-0020332D01*
X0026126Y-0020338D01*
X0026145Y-0020345D01*
X0026164Y-0020353D01*
X0026183Y-0020362D01*
X0026201Y-0020372D01*
X0026218Y-0020382D01*
X0026235Y-0020394D01*
X0026252Y-0020407D01*
X0026267Y-0020420D01*
X0026282Y-0020434D01*
X0026296Y-0020449D01*
X0026310Y-0020465D01*
X0026322Y-0020481D01*
X0026334Y-0020498D01*
X0026345Y-0020516D01*
X0026355Y-0020534D01*
X0026364Y-0020552D01*
X0026371Y-0020572D01*
X0026378Y-0020591D01*
X0026384Y-0020611D01*
X0026389Y-0020631D01*
X0026393Y-0020651D01*
X0026395Y-0020671D01*
X0026397Y-0020692D01*
X0026398Y-0020713D01*
X0026397Y-0020733D01*
X0026395Y-0020754D01*
X0026393Y-0020774D01*
X0026389Y-0020795D01*
X0026384Y-0020814D01*
X0026378Y-0020834D01*
X0026371Y-0020854D01*
X0026364Y-0020873D01*
X0026355Y-0020891D01*
X0026345Y-0020910D01*
X0026334Y-0020927D01*
X0026322Y-0020944D01*
X0026310Y-0020960D01*
X0026296Y-0020976D01*
X0026282Y-0020991D01*
X0026267Y-0021005D01*
X0026252Y-0021019D01*
X0026235Y-0021031D01*
X0026218Y-0021043D01*
X0026201Y-0021054D01*
X0026183Y-0021063D01*
X0026164Y-0021072D01*
X0026145Y-0021080D01*
X0026126Y-0021087D01*
X0026106Y-0021093D01*
X0026086Y-0021098D01*
X0026065Y-0021101D01*
X0026045Y-0021104D01*
X0026024Y-0021106D01*
X0026004Y-0021106D01*
X0023051D01*
Y-0020319D01*
X0026004D01*
X0026024Y-0020319D01*
D02*
G37*
G36*
Y-0018745D02*
X0026045Y-0018746D01*
X0026065Y-0018749D01*
X0026086Y-0018753D01*
X0026106Y-0018757D01*
X0026126Y-0018763D01*
X0026145Y-0018770D01*
X0026164Y-0018778D01*
X0026183Y-0018787D01*
X0026201Y-0018797D01*
X0026218Y-0018808D01*
X0026235Y-0018819D01*
X0026252Y-0018832D01*
X0026267Y-0018845D01*
X0026282Y-0018859D01*
X0026296Y-0018874D01*
X0026310Y-0018890D01*
X0026322Y-0018906D01*
X0026334Y-0018923D01*
X0026345Y-0018941D01*
X0026355Y-0018959D01*
X0026364Y-0018978D01*
X0026371Y-0018997D01*
X0026378Y-0019016D01*
X0026384Y-0019036D01*
X0026389Y-0019056D01*
X0026393Y-0019076D01*
X0026395Y-0019097D01*
X0026397Y-0019117D01*
X0026398Y-0019138D01*
X0026397Y-0019158D01*
X0026395Y-0019179D01*
X0026393Y-0019199D01*
X0026389Y-0019220D01*
X0026384Y-0019240D01*
X0026378Y-0019260D01*
X0026371Y-0019279D01*
X0026364Y-0019298D01*
X0026355Y-0019317D01*
X0026345Y-0019335D01*
X0026334Y-0019352D01*
X0026322Y-0019369D01*
X0026310Y-0019386D01*
X0026296Y-0019401D01*
X0026282Y-0019416D01*
X0026267Y-0019430D01*
X0026252Y-0019444D01*
X0026235Y-0019456D01*
X0026218Y-0019468D01*
X0026201Y-0019479D01*
X0026183Y-0019489D01*
X0026164Y-0019498D01*
X0026145Y-0019505D01*
X0026126Y-0019512D01*
X0026106Y-0019518D01*
X0026086Y-0019523D01*
X0026065Y-0019527D01*
X0026045Y-0019529D01*
X0026024Y-0019531D01*
X0026004Y-0019532D01*
X0023051D01*
Y-0018744D01*
X0026004D01*
X0026024Y-0018745D01*
D02*
G37*
G36*
Y-0017170D02*
X0026045Y-0017171D01*
X0026065Y-0017174D01*
X0026086Y-0017178D01*
X0026106Y-0017183D01*
X0026126Y-0017189D01*
X0026145Y-0017195D01*
X0026164Y-0017203D01*
X0026183Y-0017212D01*
X0026201Y-0017222D01*
X0026218Y-0017233D01*
X0026235Y-0017244D01*
X0026252Y-0017257D01*
X0026267Y-0017270D01*
X0026282Y-0017285D01*
X0026296Y-0017300D01*
X0026310Y-0017315D01*
X0026322Y-0017332D01*
X0026334Y-0017349D01*
X0026345Y-0017366D01*
X0026355Y-0017384D01*
X0026364Y-0017403D01*
X0026371Y-0017422D01*
X0026378Y-0017441D01*
X0026384Y-0017461D01*
X0026389Y-0017481D01*
X0026393Y-0017501D01*
X0026395Y-0017522D01*
X0026397Y-0017542D01*
X0026398Y-0017563D01*
X0026397Y-0017584D01*
X0026395Y-0017604D01*
X0026393Y-0017625D01*
X0026389Y-0017645D01*
X0026384Y-0017665D01*
X0026378Y-0017685D01*
X0026371Y-0017704D01*
X0026364Y-0017723D01*
X0026355Y-0017742D01*
X0026345Y-0017760D01*
X0026334Y-0017777D01*
X0026322Y-0017794D01*
X0026310Y-0017811D01*
X0026296Y-0017826D01*
X0026282Y-0017841D01*
X0026267Y-0017856D01*
X0026252Y-0017869D01*
X0026235Y-0017882D01*
X0026218Y-0017893D01*
X0026201Y-0017904D01*
X0026183Y-0017914D01*
X0026164Y-0017923D01*
X0026145Y-0017931D01*
X0026126Y-0017937D01*
X0026106Y-0017943D01*
X0026086Y-0017948D01*
X0026065Y-0017952D01*
X0026045Y-0017955D01*
X0026024Y-0017956D01*
X0026004Y-0017957D01*
X0023051D01*
Y-0017169D01*
X0026004D01*
X0026024Y-0017170D01*
D02*
G37*
G36*
X0037323Y-0027996D02*
X0036339D01*
Y-0025339D01*
X0028661D01*
Y-0027996D01*
X0027677D01*
Y-0015004D01*
X0028661D01*
Y-0017661D01*
X0036339D01*
Y-0015004D01*
X0037323D01*
Y-0027996D01*
D02*
G37*
G36*
X0041949Y-0017957D02*
X0038996D01*
X0038976Y-0017956D01*
X0038955Y-0017955D01*
X0038934Y-0017952D01*
X0038914Y-0017948D01*
X0038894Y-0017943D01*
X0038874Y-0017937D01*
X0038855Y-0017931D01*
X0038836Y-0017923D01*
X0038817Y-0017914D01*
X0038799Y-0017904D01*
X0038782Y-0017893D01*
X0038765Y-0017882D01*
X0038748Y-0017869D01*
X0038733Y-0017856D01*
X0038718Y-0017841D01*
X0038704Y-0017826D01*
X0038690Y-0017811D01*
X0038678Y-0017794D01*
X0038666Y-0017777D01*
X0038655Y-0017760D01*
X0038645Y-0017742D01*
X0038636Y-0017723D01*
X0038629Y-0017704D01*
X0038622Y-0017685D01*
X0038616Y-0017665D01*
X0038611Y-0017645D01*
X0038607Y-0017625D01*
X0038605Y-0017604D01*
X0038603Y-0017584D01*
X0038602Y-0017563D01*
X0038603Y-0017542D01*
X0038605Y-0017522D01*
X0038607Y-0017501D01*
X0038611Y-0017481D01*
X0038616Y-0017461D01*
X0038622Y-0017441D01*
X0038629Y-0017422D01*
X0038636Y-0017403D01*
X0038645Y-0017384D01*
X0038655Y-0017366D01*
X0038666Y-0017349D01*
X0038678Y-0017332D01*
X0038690Y-0017315D01*
X0038704Y-0017300D01*
X0038718Y-0017285D01*
X0038733Y-0017270D01*
X0038748Y-0017257D01*
X0038765Y-0017244D01*
X0038782Y-0017233D01*
X0038799Y-0017222D01*
X0038817Y-0017212D01*
X0038836Y-0017203D01*
X0038855Y-0017195D01*
X0038874Y-0017189D01*
X0038894Y-0017183D01*
X0038914Y-0017178D01*
X0038934Y-0017174D01*
X0038955Y-0017171D01*
X0038976Y-0017170D01*
X0038996Y-0017169D01*
X0041949D01*
Y-0017957D01*
D02*
G37*
G36*
Y-0019532D02*
X0038996D01*
X0038976Y-0019531D01*
X0038955Y-0019529D01*
X0038934Y-0019527D01*
X0038914Y-0019523D01*
X0038894Y-0019518D01*
X0038874Y-0019512D01*
X0038855Y-0019505D01*
X0038836Y-0019498D01*
X0038817Y-0019489D01*
X0038799Y-0019479D01*
X0038782Y-0019468D01*
X0038765Y-0019456D01*
X0038748Y-0019444D01*
X0038733Y-0019430D01*
X0038718Y-0019416D01*
X0038704Y-0019401D01*
X0038690Y-0019386D01*
X0038678Y-0019369D01*
X0038666Y-0019352D01*
X0038655Y-0019335D01*
X0038645Y-0019317D01*
X0038636Y-0019298D01*
X0038629Y-0019279D01*
X0038622Y-0019260D01*
X0038616Y-0019240D01*
X0038611Y-0019220D01*
X0038607Y-0019199D01*
X0038605Y-0019179D01*
X0038603Y-0019158D01*
X0038602Y-0019138D01*
X0038603Y-0019117D01*
X0038605Y-0019097D01*
X0038607Y-0019076D01*
X0038611Y-0019056D01*
X0038616Y-0019036D01*
X0038622Y-0019016D01*
X0038629Y-0018997D01*
X0038636Y-0018978D01*
X0038645Y-0018959D01*
X0038655Y-0018941D01*
X0038666Y-0018923D01*
X0038678Y-0018906D01*
X0038690Y-0018890D01*
X0038704Y-0018874D01*
X0038718Y-0018859D01*
X0038733Y-0018845D01*
X0038748Y-0018832D01*
X0038765Y-0018819D01*
X0038782Y-0018808D01*
X0038799Y-0018797D01*
X0038817Y-0018787D01*
X0038836Y-0018778D01*
X0038855Y-0018770D01*
X0038874Y-0018763D01*
X0038894Y-0018757D01*
X0038914Y-0018753D01*
X0038934Y-0018749D01*
X0038955Y-0018746D01*
X0038976Y-0018745D01*
X0038996Y-0018744D01*
X0041949D01*
Y-0019532D01*
D02*
G37*
G36*
Y-0021106D02*
X0038996D01*
X0038976Y-0021106D01*
X0038955Y-0021104D01*
X0038934Y-0021101D01*
X0038914Y-0021098D01*
X0038894Y-0021093D01*
X0038874Y-0021087D01*
X0038855Y-0021080D01*
X0038836Y-0021072D01*
X0038817Y-0021063D01*
X0038799Y-0021054D01*
X0038782Y-0021043D01*
X0038765Y-0021031D01*
X0038748Y-0021019D01*
X0038733Y-0021005D01*
X0038718Y-0020991D01*
X0038704Y-0020976D01*
X0038690Y-0020960D01*
X0038678Y-0020944D01*
X0038666Y-0020927D01*
X0038655Y-0020910D01*
X0038645Y-0020891D01*
X0038636Y-0020873D01*
X0038629Y-0020854D01*
X0038622Y-0020834D01*
X0038616Y-0020814D01*
X0038611Y-0020795D01*
X0038607Y-0020774D01*
X0038605Y-0020754D01*
X0038603Y-0020733D01*
X0038602Y-0020713D01*
X0038603Y-0020692D01*
X0038605Y-0020671D01*
X0038607Y-0020651D01*
X0038611Y-0020631D01*
X0038616Y-0020611D01*
X0038622Y-0020591D01*
X0038629Y-0020572D01*
X0038636Y-0020552D01*
X0038645Y-0020534D01*
X0038655Y-0020516D01*
X0038666Y-0020498D01*
X0038678Y-0020481D01*
X0038690Y-0020465D01*
X0038704Y-0020449D01*
X0038718Y-0020434D01*
X0038733Y-0020420D01*
X0038748Y-0020407D01*
X0038765Y-0020394D01*
X0038782Y-0020382D01*
X0038799Y-0020372D01*
X0038817Y-0020362D01*
X0038836Y-0020353D01*
X0038855Y-0020345D01*
X0038874Y-0020338D01*
X0038894Y-0020332D01*
X0038914Y-0020327D01*
X0038934Y-0020324D01*
X0038955Y-0020321D01*
X0038976Y-0020319D01*
X0038996Y-0020319D01*
X0041949D01*
Y-0021106D01*
D02*
G37*
G36*
Y-0022681D02*
X0038996D01*
X0038976Y-0022681D01*
X0038955Y-0022679D01*
X0038934Y-0022676D01*
X0038914Y-0022672D01*
X0038894Y-0022668D01*
X0038874Y-0022662D01*
X0038855Y-0022655D01*
X0038836Y-0022647D01*
X0038817Y-0022638D01*
X0038799Y-0022628D01*
X0038782Y-0022618D01*
X0038765Y-0022606D01*
X0038748Y-0022593D01*
X0038733Y-0022580D01*
X0038718Y-0022566D01*
X0038704Y-0022551D01*
X0038690Y-0022535D01*
X0038678Y-0022519D01*
X0038666Y-0022502D01*
X0038655Y-0022484D01*
X0038645Y-0022466D01*
X0038636Y-0022447D01*
X0038629Y-0022429D01*
X0038622Y-0022409D01*
X0038616Y-0022389D01*
X0038611Y-0022369D01*
X0038607Y-0022349D01*
X0038605Y-0022329D01*
X0038603Y-0022308D01*
X0038602Y-0022287D01*
X0038603Y-0022267D01*
X0038605Y-0022246D01*
X0038607Y-0022226D01*
X0038611Y-0022206D01*
X0038616Y-0022185D01*
X0038622Y-0022166D01*
X0038629Y-0022146D01*
X0038636Y-0022127D01*
X0038645Y-0022109D01*
X0038655Y-0022091D01*
X0038666Y-0022073D01*
X0038678Y-0022056D01*
X0038690Y-0022040D01*
X0038704Y-0022024D01*
X0038718Y-0022009D01*
X0038733Y-0021995D01*
X0038748Y-0021981D01*
X0038765Y-0021969D01*
X0038782Y-0021957D01*
X0038799Y-0021946D01*
X0038817Y-0021937D01*
X0038836Y-0021928D01*
X0038855Y-0021920D01*
X0038874Y-0021913D01*
X0038894Y-0021907D01*
X0038914Y-0021902D01*
X0038934Y-0021899D01*
X0038955Y-0021896D01*
X0038976Y-0021894D01*
X0038996Y-0021894D01*
X0041949D01*
Y-0022681D01*
D02*
G37*
G36*
Y-0024256D02*
X0038996D01*
X0038976Y-0024255D01*
X0038955Y-0024254D01*
X0038934Y-0024251D01*
X0038914Y-0024247D01*
X0038894Y-0024242D01*
X0038874Y-0024237D01*
X0038855Y-0024230D01*
X0038836Y-0024222D01*
X0038817Y-0024213D01*
X0038799Y-0024203D01*
X0038782Y-0024192D01*
X0038765Y-0024181D01*
X0038748Y-0024168D01*
X0038733Y-0024155D01*
X0038718Y-0024141D01*
X0038704Y-0024126D01*
X0038690Y-0024110D01*
X0038678Y-0024094D01*
X0038666Y-0024077D01*
X0038655Y-0024059D01*
X0038645Y-0024041D01*
X0038636Y-0024022D01*
X0038629Y-0024003D01*
X0038622Y-0023984D01*
X0038616Y-0023964D01*
X0038611Y-0023944D01*
X0038607Y-0023924D01*
X0038605Y-0023903D01*
X0038603Y-0023883D01*
X0038602Y-0023862D01*
X0038603Y-0023842D01*
X0038605Y-0023821D01*
X0038607Y-0023801D01*
X0038611Y-0023780D01*
X0038616Y-0023760D01*
X0038622Y-0023741D01*
X0038629Y-0023721D01*
X0038636Y-0023702D01*
X0038645Y-0023684D01*
X0038655Y-0023665D01*
X0038666Y-0023648D01*
X0038678Y-0023631D01*
X0038690Y-0023614D01*
X0038704Y-0023599D01*
X0038718Y-0023584D01*
X0038733Y-0023570D01*
X0038748Y-0023556D01*
X0038765Y-0023544D01*
X0038782Y-0023532D01*
X0038799Y-0023521D01*
X0038817Y-0023511D01*
X0038836Y-0023503D01*
X0038855Y-0023495D01*
X0038874Y-0023488D01*
X0038894Y-0023482D01*
X0038914Y-0023477D01*
X0038934Y-0023473D01*
X0038955Y-0023471D01*
X0038976Y-0023469D01*
X0038996Y-0023469D01*
X0041949D01*
Y-0024256D01*
D02*
G37*
G36*
Y-0025831D02*
X0038996D01*
X0038976Y-0025830D01*
X0038955Y-0025829D01*
X0038934Y-0025826D01*
X0038914Y-0025822D01*
X0038894Y-0025817D01*
X0038874Y-0025811D01*
X0038855Y-0025805D01*
X0038836Y-0025797D01*
X0038817Y-0025788D01*
X0038799Y-0025778D01*
X0038782Y-0025767D01*
X0038765Y-0025756D01*
X0038748Y-0025743D01*
X0038733Y-0025730D01*
X0038718Y-0025715D01*
X0038704Y-0025701D01*
X0038690Y-0025685D01*
X0038678Y-0025668D01*
X0038666Y-0025651D01*
X0038655Y-0025634D01*
X0038645Y-0025616D01*
X0038636Y-0025597D01*
X0038629Y-0025578D01*
X0038622Y-0025559D01*
X0038616Y-0025539D01*
X0038611Y-0025519D01*
X0038607Y-0025499D01*
X0038605Y-0025478D01*
X0038603Y-0025458D01*
X0038602Y-0025437D01*
X0038603Y-0025416D01*
X0038605Y-0025396D01*
X0038607Y-0025375D01*
X0038611Y-0025355D01*
X0038616Y-0025335D01*
X0038622Y-0025315D01*
X0038629Y-0025296D01*
X0038636Y-0025277D01*
X0038645Y-0025258D01*
X0038655Y-0025240D01*
X0038666Y-0025223D01*
X0038678Y-0025206D01*
X0038690Y-0025189D01*
X0038704Y-0025174D01*
X0038718Y-0025159D01*
X0038733Y-0025144D01*
X0038748Y-0025131D01*
X0038765Y-0025118D01*
X0038782Y-0025107D01*
X0038799Y-0025096D01*
X0038817Y-0025086D01*
X0038836Y-0025077D01*
X0038855Y-0025069D01*
X0038874Y-0025063D01*
X0038894Y-0025057D01*
X0038914Y-0025052D01*
X0038934Y-0025048D01*
X0038955Y-0025045D01*
X0038976Y-0025044D01*
X0038996Y-0025043D01*
X0041949D01*
Y-0025831D01*
D02*
G37*
D12*
X0040866Y-0017563D02*
X0047937D01*
X0048000Y-0017500D01*
Y-0016500D01*
X0000437Y-0050437D02*
X0018563D01*
Y-0025437D01*
X0023051D01*
X0000138Y-0039862D02*
X0014638D01*
Y-0023862D01*
X0023051D01*
X0000000Y-0030000D02*
X0010000D01*
Y-0022500D01*
X0010213Y-0022287D01*
X0023051D01*
X0000713Y-0020713D02*
X0023051D01*
X0000362Y-0009638D02*
X0010138D01*
Y-0019138D02*
Y-0009638D01*
Y-0019138D02*
X0023051D01*
X0000000Y0000000D02*
X0015000D01*
Y-0017500D02*
Y0000000D01*
Y-0017500D02*
X0015063Y-0017563D01*
X0023051D01*
X0044063Y-0050437D02*
X0059563D01*
X0044000Y-0050500D02*
X0044063Y-0050437D01*
X0044000Y-0050500D02*
X0044063Y-0050437D01*
Y-0025437D01*
X0041949D02*
X0044063D01*
X0047138Y-0040862D02*
X0059138D01*
X0047138D02*
Y-0023862D01*
X0041949D02*
X0047138D01*
X0051787Y-0029787D02*
X0059787D01*
X0051787D02*
Y-0022287D01*
X0041949D02*
X0051787D01*
X0041949Y-0020713D02*
X0059287D01*
X0052500Y-0009500D02*
X0059500D01*
X0052500Y-0019000D02*
Y-0009500D01*
X0052362Y-0019138D02*
X0052500Y-0019000D01*
X0041949Y-0019138D02*
X0052362D01*
X0048000Y-0000500D02*
X0059500D01*
X0048000Y-0016500D02*
Y-0000500D01*
X0000000Y0000000D02*
X0000500Y0000500D01*
D13*
X0040276Y-0022287D02*
D03*
Y-0020713D02*
D03*
Y-0017563D02*
D03*
Y-0019138D02*
D03*
Y-0023862D02*
D03*
Y-0025437D02*
D03*
X0024724Y-0017563D02*
D03*
Y-0023862D02*
D03*
Y-0022287D02*
D03*
Y-0019138D02*
D03*
Y-0025437D02*
D03*
Y-0020713D02*
D03*
D14*
X0032500Y-0021500D02*
D03*
D15*
X0060000Y-0040000D02*
D03*
Y-0030000D02*
D03*
Y-0020000D02*
D03*
Y-0050000D02*
D03*
Y-0010000D02*
D03*
Y0000000D02*
D03*
X0000000D02*
D03*
Y-0010000D02*
D03*
Y-0020000D02*
D03*
Y-0040000D02*
D03*
Y-0030000D02*
D03*
Y-0050000D02*
D03*
D16*
X0032500Y-0019532D02*
D03*
X0028957Y-0023469D02*
D03*
X0036043D02*
D03*
Y-0019532D02*
D03*
X0032500Y-0023469D02*
D03*
X0028957Y-0019532D02*
D03*
M02*
