G04*
G04 #@! TF.GenerationSoftware,Altium Limited,Altium Designer,22.0.2 (36)*
G04*
G04 Layer_Color=32768*
%FSLAX25Y25*%
%MOIN*%
G70*
G04*
G04 #@! TF.SameCoordinates,67E39877-474A-4780-B11E-DC456855A8CC*
G04*
G04*
G04 #@! TF.FilePolarity,Positive*
G04*
G01*
G75*
%ADD12C,0.00600*%
%ADD14C,0.01000*%
%ADD64C,0.00100*%
%ADD65C,0.00197*%
G36*
X107200Y351600D02*
X123100D01*
Y343400D01*
X107200D01*
Y337050D01*
X54000D01*
Y343400D01*
X38100D01*
Y351600D01*
X54000D01*
Y357950D01*
X107200D01*
Y351600D01*
D02*
G37*
G36*
X86050Y328750D02*
X98750D01*
Y321250D01*
X86050D01*
Y319100D01*
X58450D01*
Y321250D01*
X45750D01*
Y328750D01*
X58450D01*
Y330900D01*
X86050D01*
Y328750D01*
D02*
G37*
G36*
X115750Y312350D02*
X129350D01*
Y304650D01*
X115750D01*
Y299500D01*
X71250D01*
Y304650D01*
X57650D01*
Y312350D01*
X71250D01*
Y317500D01*
X115750D01*
Y312350D01*
D02*
G37*
G36*
X31250Y325050D02*
X33400D01*
Y297450D01*
X31250D01*
Y284750D01*
X23750D01*
Y297450D01*
X21600D01*
Y325050D01*
X23750D01*
Y337750D01*
X31250D01*
Y325050D01*
D02*
G37*
G36*
X172200Y228700D02*
X154800D01*
Y243300D01*
X172200D01*
Y228700D01*
D02*
G37*
G36*
X81750Y237603D02*
Y230397D01*
X76603Y225250D01*
X69397D01*
X64250Y230397D01*
Y237603D01*
X69397Y242750D01*
X76603D01*
X81750Y237603D01*
D02*
G37*
G36*
X217550Y232750D02*
X230250D01*
Y225250D01*
X217550D01*
Y223100D01*
X189950D01*
Y225250D01*
X177250D01*
Y232750D01*
X189950D01*
Y234900D01*
X217550D01*
Y232750D01*
D02*
G37*
G36*
X102250Y235103D02*
Y227897D01*
X97103Y222750D01*
X89897D01*
X84750Y227897D01*
Y235103D01*
X89897Y240250D01*
X97103D01*
X102250Y235103D01*
D02*
G37*
G36*
X211700Y195000D02*
X200300D01*
Y217000D01*
X211700D01*
Y195000D01*
D02*
G37*
G36*
X210050Y182750D02*
X222750D01*
Y175250D01*
X210050D01*
Y173100D01*
X182450D01*
Y175250D01*
X169750D01*
Y182750D01*
X182450D01*
Y184900D01*
X210050D01*
Y182750D01*
D02*
G37*
G36*
X76850Y205000D02*
X78900D01*
Y174000D01*
X76850D01*
Y160150D01*
X69150D01*
Y174000D01*
X67100D01*
Y205000D01*
X69150D01*
Y218850D01*
X76850D01*
Y205000D01*
D02*
G37*
G36*
X96850Y204000D02*
X98900D01*
Y173000D01*
X96850D01*
Y159150D01*
X89150D01*
Y173000D01*
X87100D01*
Y204000D01*
X89150D01*
Y217850D01*
X96850D01*
Y204000D01*
D02*
G37*
G36*
X93550Y130750D02*
X106250D01*
Y123250D01*
X93550D01*
Y121100D01*
X65950D01*
Y123250D01*
X53250D01*
Y130750D01*
X65950D01*
Y132900D01*
X93550D01*
Y130750D01*
D02*
G37*
G36*
X148700Y117000D02*
X137300D01*
Y139000D01*
X148700D01*
Y117000D01*
D02*
G37*
G36*
X91550Y108750D02*
X104250D01*
Y101250D01*
X91550D01*
Y99100D01*
X63950D01*
Y101250D01*
X51250D01*
Y108750D01*
X63950D01*
Y110900D01*
X91550D01*
Y108750D01*
D02*
G37*
G36*
X174550Y101250D02*
X187250D01*
Y93750D01*
X174550D01*
Y91600D01*
X146950D01*
Y93750D01*
X134250D01*
Y101250D01*
X146950D01*
Y103400D01*
X174550D01*
Y101250D01*
D02*
G37*
G36*
X185050Y77250D02*
X197750D01*
Y69750D01*
X185050D01*
Y67600D01*
X157450D01*
Y69750D01*
X144750D01*
Y77250D01*
X157450D01*
Y79400D01*
X185050D01*
Y77250D01*
D02*
G37*
G36*
X41050Y37195D02*
X22296D01*
Y60868D01*
X41050D01*
Y37195D01*
D02*
G37*
D12*
X51250Y101250D02*
Y108750D01*
X63950D01*
X91550D02*
X104250D01*
Y101250D02*
Y108750D01*
X91550Y101250D02*
X104250D01*
X51250D02*
X63950D01*
Y99100D02*
Y101250D01*
Y108750D02*
Y110900D01*
X91550D01*
Y108750D02*
Y110900D01*
Y99100D02*
Y101250D01*
X63950Y99100D02*
X91550D01*
X71250Y317500D02*
X115750D01*
X71250Y312350D02*
Y317500D01*
Y299500D02*
Y304650D01*
Y299500D02*
X115750D01*
Y304650D01*
Y312350D02*
Y317500D01*
Y312350D02*
X129350D01*
X57650D02*
X71250D01*
X57650Y304650D02*
Y312350D01*
Y304650D02*
X71250D01*
X115750D02*
X129350D01*
Y312350D01*
X146950Y91600D02*
X174550D01*
Y93750D01*
Y101250D02*
Y103400D01*
X146950D02*
X174550D01*
X146950Y101250D02*
Y103400D01*
Y91600D02*
Y93750D01*
X134250D02*
X146950D01*
X174550D02*
X187250D01*
Y101250D01*
X174550D02*
X187250D01*
X134250D02*
X146950D01*
X134250Y93750D02*
Y101250D01*
X22296Y60868D02*
X41050D01*
X22296Y37195D02*
Y60868D01*
Y37195D02*
X41050D01*
Y60868D01*
X200300Y195000D02*
X211700D01*
Y217000D01*
X200300D02*
X211700D01*
X200300Y195000D02*
Y217000D01*
X137300Y139000D02*
X148700D01*
X137300Y117000D02*
Y139000D01*
Y117000D02*
X148700D01*
Y139000D01*
X157450Y67600D02*
X185050D01*
Y69750D01*
Y77250D02*
Y79400D01*
X157450D02*
X185050D01*
X157450Y77250D02*
Y79400D01*
Y67600D02*
Y69750D01*
X144750D02*
X157450D01*
X185050D02*
X197750D01*
Y77250D01*
X185050D02*
X197750D01*
X144750D02*
X157450D01*
X144750Y69750D02*
Y77250D01*
X54000Y357950D02*
X107200D01*
X54000Y351600D02*
Y357950D01*
Y337050D02*
Y343400D01*
Y337050D02*
X107200D01*
Y343400D01*
Y351600D02*
Y357950D01*
Y351600D02*
X123100D01*
X38100D02*
X54000D01*
X38100Y343400D02*
Y351600D01*
Y343400D02*
X54000D01*
X107200D02*
X123100D01*
Y351600D01*
X58450Y330900D02*
X86050D01*
X58450Y328750D02*
Y330900D01*
Y319100D02*
Y321250D01*
Y319100D02*
X86050D01*
Y321250D01*
Y328750D02*
Y330900D01*
Y328750D02*
X98750D01*
X45750D02*
X58450D01*
X45750Y321250D02*
Y328750D01*
Y321250D02*
X58450D01*
X86050D02*
X98750D01*
Y328750D01*
X182450Y184900D02*
X210050D01*
X182450Y182750D02*
Y184900D01*
Y173100D02*
Y175250D01*
Y173100D02*
X210050D01*
Y175250D01*
Y182750D02*
Y184900D01*
Y182750D02*
X222750D01*
X169750D02*
X182450D01*
X169750Y175250D02*
Y182750D01*
Y175250D02*
X182450D01*
X210050D02*
X222750D01*
Y182750D01*
X189950Y223100D02*
X217550D01*
Y225250D01*
Y232750D02*
Y234900D01*
X189950D02*
X217550D01*
X189950Y232750D02*
Y234900D01*
Y223100D02*
Y225250D01*
X177250D02*
X189950D01*
X217550D02*
X230250D01*
Y232750D01*
X217550D02*
X230250D01*
X177250D02*
X189950D01*
X177250Y225250D02*
Y232750D01*
X154800Y243300D02*
X172200D01*
X154800Y228700D02*
Y243300D01*
Y228700D02*
X172200D01*
Y243300D01*
X78900Y174000D02*
Y205000D01*
X76850D02*
X78900D01*
X67100D02*
X69150D01*
X67100Y174000D02*
Y205000D01*
Y174000D02*
X69150D01*
X76850D02*
X78900D01*
X76850Y160150D02*
Y174000D01*
Y205000D02*
Y218850D01*
X69150D02*
X76850D01*
X69150Y205000D02*
Y218850D01*
Y160150D02*
Y174000D01*
Y160150D02*
X76850D01*
X87100Y173000D02*
Y204000D01*
Y173000D02*
X89150D01*
X96850D02*
X98900D01*
Y204000D01*
X96850D02*
X98900D01*
X87100D02*
X89150D01*
Y217850D01*
Y159150D02*
Y173000D01*
Y159150D02*
X96850D01*
Y173000D01*
Y204000D02*
Y217850D01*
X89150D02*
X96850D01*
X21600Y297450D02*
Y325050D01*
Y297450D02*
X23750D01*
X31250D02*
X33400D01*
Y325050D01*
X31250D02*
X33400D01*
X21600D02*
X23750D01*
Y337750D01*
Y284750D02*
Y297450D01*
Y284750D02*
X31250D01*
Y297450D01*
Y325050D02*
Y337750D01*
X23750D02*
X31250D01*
X65950Y132900D02*
X93550D01*
X65950Y130750D02*
Y132900D01*
Y121100D02*
Y123250D01*
Y121100D02*
X93550D01*
Y123250D01*
Y130750D02*
Y132900D01*
Y130750D02*
X106250D01*
X53250D02*
X65950D01*
X53250Y123250D02*
Y130750D01*
Y123250D02*
X65950D01*
X93550D02*
X106250D01*
Y130750D01*
D14*
X0Y0D02*
X265500D01*
X0Y385000D02*
X265500D01*
Y0D02*
Y385000D01*
X0Y0D02*
Y385000D01*
D64*
X76603Y242750D02*
X81750Y237603D01*
X69397Y242750D02*
X76603D01*
X64250Y237603D02*
X69397Y242750D01*
X64250Y230397D02*
Y237603D01*
Y230397D02*
X69397Y225250D01*
X76603D01*
X81750Y230397D01*
Y237603D01*
X97103Y240250D02*
X102250Y235103D01*
X89897Y240250D02*
X97103D01*
X84750Y235103D02*
X89897Y240250D01*
X84750Y227897D02*
Y235103D01*
Y227897D02*
X89897Y222750D01*
X97103D01*
X102250Y227897D01*
Y235103D01*
D65*
X128433Y64095D02*
Y75906D01*
X107567Y64095D02*
Y75906D01*
Y64095D02*
X128433D01*
X107567Y75906D02*
X128433D01*
X156252Y212512D02*
X171606D01*
Y199126D02*
Y212512D01*
X156252Y199126D02*
X171606D01*
X156252D02*
Y212512D01*
X80110Y256390D02*
Y273043D01*
X63457Y256390D02*
Y273043D01*
X80110D01*
X63457Y256390D02*
X80110D01*
X174087Y199634D02*
X179913D01*
X174087Y211366D02*
X179913D01*
Y199634D02*
Y211366D01*
X174087Y199634D02*
Y211366D01*
X181087Y199634D02*
X186913D01*
X181087Y211366D02*
X186913D01*
Y199634D02*
Y211366D01*
X181087Y199634D02*
Y211366D01*
X160815Y354410D02*
Y365591D01*
X211185D01*
Y354410D02*
Y365591D01*
X160815Y354410D02*
X211185D01*
X108650Y270642D02*
Y288358D01*
X82035D02*
X108650D01*
X82035Y270642D02*
Y288358D01*
Y270642D02*
X108650D01*
X104055Y262299D02*
Y269701D01*
X90945Y262299D02*
Y269701D01*
X104055D01*
X90945Y262299D02*
X104055D01*
X55807Y264142D02*
Y281858D01*
X29193D02*
X55807D01*
X29193Y264142D02*
Y281858D01*
Y264142D02*
X55807D01*
X131126Y55457D02*
X146874D01*
X131126D02*
Y62543D01*
X146874D01*
Y55457D02*
Y62543D01*
X59642Y68965D02*
X77358D01*
X59642Y42350D02*
Y68965D01*
Y42350D02*
X77358D01*
Y68965D01*
X88807Y75142D02*
Y92858D01*
X62193D02*
X88807D01*
X62193Y75142D02*
Y92858D01*
Y75142D02*
X88807D01*
X146087Y200634D02*
X151913D01*
X146087Y212366D02*
X151913D01*
Y200634D02*
Y212366D01*
X146087Y200634D02*
Y212366D01*
M02*
