G04*
G04 #@! TF.GenerationSoftware,Altium Limited,Altium Designer,22.0.2 (36)*
G04*
G04 Layer_Physical_Order=1*
G04 Layer_Color=255*
%FSLAX25Y25*%
%MOIN*%
G70*
G04*
G04 #@! TF.SameCoordinates,67E39877-474A-4780-B11E-DC456855A8CC*
G04*
G04*
G04 #@! TF.FilePolarity,Positive*
G04*
G01*
G75*
%ADD14C,0.01000*%
%ADD15R,0.02362X0.00945*%
%ADD16R,0.00945X0.02362*%
G04:AMPARAMS|DCode=17|XSize=33.86mil|YSize=10.24mil|CornerRadius=1.28mil|HoleSize=0mil|Usage=FLASHONLY|Rotation=0.000|XOffset=0mil|YOffset=0mil|HoleType=Round|Shape=RoundedRectangle|*
%AMROUNDEDRECTD17*
21,1,0.03386,0.00768,0,0,0.0*
21,1,0.03130,0.01024,0,0,0.0*
1,1,0.00256,0.01565,-0.00384*
1,1,0.00256,-0.01565,-0.00384*
1,1,0.00256,-0.01565,0.00384*
1,1,0.00256,0.01565,0.00384*
%
%ADD17ROUNDEDRECTD17*%
G04:AMPARAMS|DCode=18|XSize=33.86mil|YSize=10.24mil|CornerRadius=1.28mil|HoleSize=0mil|Usage=FLASHONLY|Rotation=90.000|XOffset=0mil|YOffset=0mil|HoleType=Round|Shape=RoundedRectangle|*
%AMROUNDEDRECTD18*
21,1,0.03386,0.00768,0,0,90.0*
21,1,0.03130,0.01024,0,0,90.0*
1,1,0.00256,0.00384,0.01565*
1,1,0.00256,0.00384,-0.01565*
1,1,0.00256,-0.00384,-0.01565*
1,1,0.00256,-0.00384,0.01565*
%
%ADD18ROUNDEDRECTD18*%
%ADD19R,0.06100X0.02600*%
%ADD20R,0.07500X0.05100*%
%ADD21R,0.03858X0.03740*%
%ADD22R,0.03622X0.05433*%
%ADD23R,0.05315X0.04921*%
%ADD24R,0.06100X0.12600*%
%ADD35R,0.05500X0.05500*%
%ADD36C,0.05500*%
%ADD37C,0.05700*%
%ADD38R,0.05700X0.05700*%
%ADD39R,0.06000X0.06000*%
%ADD40C,0.06000*%
%ADD44C,0.06200*%
%ADD45R,0.06200X0.06200*%
%ADD46R,0.05700X0.05700*%
%ADD47R,0.05500X0.05500*%
%ADD50R,0.09646X0.07677*%
%ADD51R,0.01575X0.00787*%
%ADD52R,0.00866X0.07047*%
%ADD53R,0.00945X0.07047*%
%ADD54R,0.06614X0.06614*%
%ADD55C,0.00700*%
%ADD56C,0.00800*%
%ADD57R,0.25000X0.25000*%
%ADD58C,0.01968*%
%ADD59C,0.01575*%
%ADD60C,0.04953*%
%ADD61C,0.05000*%
%ADD62C,0.04500*%
G36*
X111524Y66456D02*
X111545Y66454D01*
X111565Y66452D01*
X111586Y66448D01*
X111606Y66443D01*
X111626Y66437D01*
X111645Y66430D01*
X111664Y66423D01*
X111683Y66414D01*
X111701Y66404D01*
X111718Y66393D01*
X111735Y66382D01*
X111752Y66369D01*
X111767Y66356D01*
X111782Y66341D01*
X111796Y66326D01*
X111810Y66311D01*
X111822Y66294D01*
X111834Y66277D01*
X111845Y66260D01*
X111855Y66242D01*
X111864Y66223D01*
X111872Y66204D01*
X111878Y66185D01*
X111884Y66165D01*
X111889Y66145D01*
X111893Y66125D01*
X111896Y66104D01*
X111897Y66084D01*
X111898Y66063D01*
X111897Y66042D01*
X111896Y66022D01*
X111893Y66001D01*
X111889Y65981D01*
X111884Y65961D01*
X111878Y65941D01*
X111872Y65922D01*
X111864Y65903D01*
X111855Y65884D01*
X111845Y65866D01*
X111834Y65849D01*
X111822Y65832D01*
X111810Y65815D01*
X111796Y65799D01*
X111782Y65785D01*
X111767Y65770D01*
X111752Y65757D01*
X111735Y65745D01*
X111718Y65733D01*
X111701Y65722D01*
X111683Y65712D01*
X111664Y65703D01*
X111645Y65695D01*
X111626Y65689D01*
X111606Y65683D01*
X111586Y65678D01*
X111565Y65674D01*
X111545Y65671D01*
X111524Y65670D01*
X111504Y65669D01*
X108551D01*
Y66457D01*
X111504D01*
X111524Y66456D01*
D02*
G37*
G36*
Y68031D02*
X111545Y68029D01*
X111565Y68027D01*
X111586Y68023D01*
X111606Y68018D01*
X111626Y68012D01*
X111645Y68005D01*
X111664Y67997D01*
X111683Y67989D01*
X111701Y67979D01*
X111718Y67968D01*
X111735Y67956D01*
X111752Y67944D01*
X111767Y67930D01*
X111782Y67916D01*
X111796Y67901D01*
X111810Y67886D01*
X111822Y67869D01*
X111834Y67852D01*
X111845Y67835D01*
X111855Y67817D01*
X111864Y67798D01*
X111872Y67779D01*
X111878Y67760D01*
X111884Y67740D01*
X111889Y67720D01*
X111893Y67699D01*
X111896Y67679D01*
X111897Y67658D01*
X111898Y67638D01*
X111897Y67617D01*
X111896Y67597D01*
X111893Y67576D01*
X111889Y67556D01*
X111884Y67536D01*
X111878Y67516D01*
X111872Y67497D01*
X111864Y67478D01*
X111855Y67459D01*
X111845Y67441D01*
X111834Y67423D01*
X111822Y67406D01*
X111810Y67390D01*
X111796Y67374D01*
X111782Y67359D01*
X111767Y67345D01*
X111752Y67332D01*
X111735Y67319D01*
X111718Y67308D01*
X111701Y67297D01*
X111683Y67287D01*
X111664Y67278D01*
X111645Y67270D01*
X111626Y67263D01*
X111606Y67257D01*
X111586Y67253D01*
X111565Y67249D01*
X111545Y67246D01*
X111524Y67245D01*
X111504Y67244D01*
X108551D01*
Y68032D01*
X111504D01*
X111524Y68031D01*
D02*
G37*
G36*
Y69606D02*
X111545Y69604D01*
X111565Y69601D01*
X111586Y69598D01*
X111606Y69593D01*
X111626Y69587D01*
X111645Y69580D01*
X111664Y69572D01*
X111683Y69563D01*
X111701Y69554D01*
X111718Y69543D01*
X111735Y69531D01*
X111752Y69519D01*
X111767Y69505D01*
X111782Y69491D01*
X111796Y69476D01*
X111810Y69460D01*
X111822Y69444D01*
X111834Y69427D01*
X111845Y69410D01*
X111855Y69391D01*
X111864Y69373D01*
X111872Y69354D01*
X111878Y69334D01*
X111884Y69314D01*
X111889Y69294D01*
X111893Y69274D01*
X111896Y69254D01*
X111897Y69233D01*
X111898Y69213D01*
X111897Y69192D01*
X111896Y69172D01*
X111893Y69151D01*
X111889Y69131D01*
X111884Y69111D01*
X111878Y69091D01*
X111872Y69072D01*
X111864Y69052D01*
X111855Y69034D01*
X111845Y69016D01*
X111834Y68998D01*
X111822Y68981D01*
X111810Y68965D01*
X111796Y68949D01*
X111782Y68934D01*
X111767Y68920D01*
X111752Y68907D01*
X111735Y68894D01*
X111718Y68882D01*
X111701Y68872D01*
X111683Y68862D01*
X111664Y68853D01*
X111645Y68845D01*
X111626Y68838D01*
X111606Y68832D01*
X111586Y68827D01*
X111565Y68824D01*
X111545Y68821D01*
X111524Y68819D01*
X111504Y68819D01*
X108551D01*
Y69606D01*
X111504D01*
X111524Y69606D01*
D02*
G37*
G36*
Y71181D02*
X111545Y71179D01*
X111565Y71176D01*
X111586Y71172D01*
X111606Y71168D01*
X111626Y71162D01*
X111645Y71155D01*
X111664Y71147D01*
X111683Y71138D01*
X111701Y71128D01*
X111718Y71118D01*
X111735Y71106D01*
X111752Y71093D01*
X111767Y71080D01*
X111782Y71066D01*
X111796Y71051D01*
X111810Y71035D01*
X111822Y71019D01*
X111834Y71002D01*
X111845Y70984D01*
X111855Y70966D01*
X111864Y70947D01*
X111872Y70929D01*
X111878Y70909D01*
X111884Y70889D01*
X111889Y70869D01*
X111893Y70849D01*
X111896Y70828D01*
X111897Y70808D01*
X111898Y70787D01*
X111897Y70767D01*
X111896Y70746D01*
X111893Y70726D01*
X111889Y70706D01*
X111884Y70685D01*
X111878Y70666D01*
X111872Y70646D01*
X111864Y70627D01*
X111855Y70609D01*
X111845Y70591D01*
X111834Y70573D01*
X111822Y70556D01*
X111810Y70540D01*
X111796Y70524D01*
X111782Y70509D01*
X111767Y70495D01*
X111752Y70481D01*
X111735Y70469D01*
X111718Y70457D01*
X111701Y70446D01*
X111683Y70437D01*
X111664Y70428D01*
X111645Y70420D01*
X111626Y70413D01*
X111606Y70407D01*
X111586Y70402D01*
X111565Y70399D01*
X111545Y70396D01*
X111524Y70394D01*
X111504Y70394D01*
X108551D01*
Y71181D01*
X111504D01*
X111524Y71181D01*
D02*
G37*
G36*
Y72755D02*
X111545Y72754D01*
X111565Y72751D01*
X111586Y72747D01*
X111606Y72742D01*
X111626Y72737D01*
X111645Y72730D01*
X111664Y72722D01*
X111683Y72713D01*
X111701Y72703D01*
X111718Y72692D01*
X111735Y72681D01*
X111752Y72668D01*
X111767Y72655D01*
X111782Y72641D01*
X111796Y72626D01*
X111810Y72610D01*
X111822Y72594D01*
X111834Y72577D01*
X111845Y72559D01*
X111855Y72541D01*
X111864Y72522D01*
X111872Y72503D01*
X111878Y72484D01*
X111884Y72464D01*
X111889Y72444D01*
X111893Y72424D01*
X111896Y72403D01*
X111897Y72383D01*
X111898Y72362D01*
X111897Y72342D01*
X111896Y72321D01*
X111893Y72301D01*
X111889Y72280D01*
X111884Y72260D01*
X111878Y72241D01*
X111872Y72221D01*
X111864Y72202D01*
X111855Y72184D01*
X111845Y72165D01*
X111834Y72148D01*
X111822Y72131D01*
X111810Y72114D01*
X111796Y72099D01*
X111782Y72084D01*
X111767Y72070D01*
X111752Y72056D01*
X111735Y72044D01*
X111718Y72032D01*
X111701Y72021D01*
X111683Y72011D01*
X111664Y72003D01*
X111645Y71995D01*
X111626Y71988D01*
X111606Y71982D01*
X111586Y71977D01*
X111565Y71973D01*
X111545Y71971D01*
X111524Y71969D01*
X111504Y71969D01*
X108551D01*
Y72756D01*
X111504D01*
X111524Y72755D01*
D02*
G37*
G36*
Y74330D02*
X111545Y74329D01*
X111565Y74326D01*
X111586Y74322D01*
X111606Y74317D01*
X111626Y74311D01*
X111645Y74305D01*
X111664Y74297D01*
X111683Y74288D01*
X111701Y74278D01*
X111718Y74267D01*
X111735Y74256D01*
X111752Y74243D01*
X111767Y74230D01*
X111782Y74215D01*
X111796Y74200D01*
X111810Y74185D01*
X111822Y74168D01*
X111834Y74151D01*
X111845Y74134D01*
X111855Y74116D01*
X111864Y74097D01*
X111872Y74078D01*
X111878Y74059D01*
X111884Y74039D01*
X111889Y74019D01*
X111893Y73999D01*
X111896Y73978D01*
X111897Y73958D01*
X111898Y73937D01*
X111897Y73916D01*
X111896Y73896D01*
X111893Y73875D01*
X111889Y73855D01*
X111884Y73835D01*
X111878Y73815D01*
X111872Y73796D01*
X111864Y73777D01*
X111855Y73758D01*
X111845Y73740D01*
X111834Y73723D01*
X111822Y73706D01*
X111810Y73689D01*
X111796Y73674D01*
X111782Y73659D01*
X111767Y73644D01*
X111752Y73631D01*
X111735Y73619D01*
X111718Y73607D01*
X111701Y73596D01*
X111683Y73586D01*
X111664Y73577D01*
X111645Y73570D01*
X111626Y73563D01*
X111606Y73557D01*
X111586Y73552D01*
X111565Y73548D01*
X111545Y73545D01*
X111524Y73544D01*
X111504Y73543D01*
X108551D01*
Y74331D01*
X111504D01*
X111524Y74330D01*
D02*
G37*
G36*
X122823Y63504D02*
X121839D01*
Y66161D01*
X114161D01*
Y63504D01*
X113177D01*
Y76496D01*
X114161D01*
Y73839D01*
X121839D01*
Y76496D01*
X122823D01*
Y63504D01*
D02*
G37*
G36*
X127449Y73543D02*
X124496D01*
X124476Y73544D01*
X124455Y73545D01*
X124434Y73548D01*
X124414Y73552D01*
X124394Y73557D01*
X124374Y73563D01*
X124355Y73570D01*
X124336Y73577D01*
X124317Y73586D01*
X124299Y73596D01*
X124282Y73607D01*
X124265Y73619D01*
X124248Y73631D01*
X124233Y73644D01*
X124218Y73659D01*
X124204Y73674D01*
X124190Y73689D01*
X124178Y73706D01*
X124166Y73723D01*
X124155Y73740D01*
X124145Y73758D01*
X124136Y73777D01*
X124128Y73796D01*
X124122Y73815D01*
X124116Y73835D01*
X124111Y73855D01*
X124107Y73875D01*
X124104Y73896D01*
X124103Y73916D01*
X124102Y73937D01*
X124103Y73958D01*
X124104Y73978D01*
X124107Y73999D01*
X124111Y74019D01*
X124116Y74039D01*
X124122Y74059D01*
X124128Y74078D01*
X124136Y74097D01*
X124145Y74116D01*
X124155Y74134D01*
X124166Y74151D01*
X124178Y74168D01*
X124190Y74185D01*
X124204Y74200D01*
X124218Y74215D01*
X124233Y74230D01*
X124248Y74243D01*
X124265Y74256D01*
X124282Y74267D01*
X124299Y74278D01*
X124317Y74288D01*
X124336Y74297D01*
X124355Y74305D01*
X124374Y74311D01*
X124394Y74317D01*
X124414Y74322D01*
X124434Y74326D01*
X124455Y74329D01*
X124476Y74330D01*
X124496Y74331D01*
X127449D01*
Y73543D01*
D02*
G37*
G36*
Y71969D02*
X124496D01*
X124476Y71969D01*
X124455Y71971D01*
X124434Y71973D01*
X124414Y71977D01*
X124394Y71982D01*
X124374Y71988D01*
X124355Y71995D01*
X124336Y72003D01*
X124317Y72011D01*
X124299Y72021D01*
X124282Y72032D01*
X124265Y72044D01*
X124248Y72056D01*
X124233Y72070D01*
X124218Y72084D01*
X124204Y72099D01*
X124190Y72114D01*
X124178Y72131D01*
X124166Y72148D01*
X124155Y72165D01*
X124145Y72184D01*
X124136Y72202D01*
X124128Y72221D01*
X124122Y72241D01*
X124116Y72260D01*
X124111Y72280D01*
X124107Y72301D01*
X124104Y72321D01*
X124103Y72342D01*
X124102Y72362D01*
X124103Y72383D01*
X124104Y72403D01*
X124107Y72424D01*
X124111Y72444D01*
X124116Y72464D01*
X124122Y72484D01*
X124128Y72503D01*
X124136Y72522D01*
X124145Y72541D01*
X124155Y72559D01*
X124166Y72577D01*
X124178Y72594D01*
X124190Y72610D01*
X124204Y72626D01*
X124218Y72641D01*
X124233Y72655D01*
X124248Y72668D01*
X124265Y72681D01*
X124282Y72692D01*
X124299Y72703D01*
X124317Y72713D01*
X124336Y72722D01*
X124355Y72730D01*
X124374Y72737D01*
X124394Y72742D01*
X124414Y72747D01*
X124434Y72751D01*
X124455Y72754D01*
X124476Y72755D01*
X124496Y72756D01*
X127449D01*
Y71969D01*
D02*
G37*
G36*
Y70394D02*
X124496D01*
X124476Y70394D01*
X124455Y70396D01*
X124434Y70399D01*
X124414Y70402D01*
X124394Y70407D01*
X124374Y70413D01*
X124355Y70420D01*
X124336Y70428D01*
X124317Y70437D01*
X124299Y70446D01*
X124282Y70457D01*
X124265Y70469D01*
X124248Y70481D01*
X124233Y70495D01*
X124218Y70509D01*
X124204Y70524D01*
X124190Y70540D01*
X124178Y70556D01*
X124166Y70573D01*
X124155Y70591D01*
X124145Y70609D01*
X124136Y70627D01*
X124128Y70646D01*
X124122Y70666D01*
X124116Y70685D01*
X124111Y70706D01*
X124107Y70726D01*
X124104Y70746D01*
X124103Y70767D01*
X124102Y70787D01*
X124103Y70808D01*
X124104Y70828D01*
X124107Y70849D01*
X124111Y70869D01*
X124116Y70889D01*
X124122Y70909D01*
X124128Y70929D01*
X124136Y70947D01*
X124145Y70966D01*
X124155Y70984D01*
X124166Y71002D01*
X124178Y71019D01*
X124190Y71035D01*
X124204Y71051D01*
X124218Y71066D01*
X124233Y71080D01*
X124248Y71093D01*
X124265Y71106D01*
X124282Y71118D01*
X124299Y71128D01*
X124317Y71138D01*
X124336Y71147D01*
X124355Y71155D01*
X124374Y71162D01*
X124394Y71168D01*
X124414Y71172D01*
X124434Y71176D01*
X124455Y71179D01*
X124476Y71181D01*
X124496Y71181D01*
X127449D01*
Y70394D01*
D02*
G37*
G36*
Y68819D02*
X124496D01*
X124476Y68819D01*
X124455Y68821D01*
X124434Y68824D01*
X124414Y68827D01*
X124394Y68832D01*
X124374Y68838D01*
X124355Y68845D01*
X124336Y68853D01*
X124317Y68862D01*
X124299Y68872D01*
X124282Y68882D01*
X124265Y68894D01*
X124248Y68907D01*
X124233Y68920D01*
X124218Y68934D01*
X124204Y68949D01*
X124190Y68965D01*
X124178Y68981D01*
X124166Y68998D01*
X124155Y69016D01*
X124145Y69034D01*
X124136Y69052D01*
X124128Y69072D01*
X124122Y69091D01*
X124116Y69111D01*
X124111Y69131D01*
X124107Y69151D01*
X124104Y69172D01*
X124103Y69192D01*
X124102Y69213D01*
X124103Y69233D01*
X124104Y69254D01*
X124107Y69274D01*
X124111Y69294D01*
X124116Y69314D01*
X124122Y69334D01*
X124128Y69354D01*
X124136Y69373D01*
X124145Y69391D01*
X124155Y69410D01*
X124166Y69427D01*
X124178Y69444D01*
X124190Y69460D01*
X124204Y69476D01*
X124218Y69491D01*
X124233Y69505D01*
X124248Y69519D01*
X124265Y69531D01*
X124282Y69543D01*
X124299Y69554D01*
X124317Y69563D01*
X124336Y69572D01*
X124355Y69580D01*
X124374Y69587D01*
X124394Y69593D01*
X124414Y69598D01*
X124434Y69601D01*
X124455Y69604D01*
X124476Y69606D01*
X124496Y69606D01*
X127449D01*
Y68819D01*
D02*
G37*
G36*
Y67244D02*
X124496D01*
X124476Y67245D01*
X124455Y67246D01*
X124434Y67249D01*
X124414Y67253D01*
X124394Y67257D01*
X124374Y67263D01*
X124355Y67270D01*
X124336Y67278D01*
X124317Y67287D01*
X124299Y67297D01*
X124282Y67308D01*
X124265Y67319D01*
X124248Y67332D01*
X124233Y67345D01*
X124218Y67359D01*
X124204Y67374D01*
X124190Y67390D01*
X124178Y67406D01*
X124166Y67423D01*
X124155Y67441D01*
X124145Y67459D01*
X124136Y67478D01*
X124128Y67497D01*
X124122Y67516D01*
X124116Y67536D01*
X124111Y67556D01*
X124107Y67576D01*
X124104Y67597D01*
X124103Y67617D01*
X124102Y67638D01*
X124103Y67658D01*
X124104Y67679D01*
X124107Y67699D01*
X124111Y67720D01*
X124116Y67740D01*
X124122Y67760D01*
X124128Y67779D01*
X124136Y67798D01*
X124145Y67817D01*
X124155Y67835D01*
X124166Y67852D01*
X124178Y67869D01*
X124190Y67886D01*
X124204Y67901D01*
X124218Y67916D01*
X124233Y67930D01*
X124248Y67944D01*
X124265Y67956D01*
X124282Y67968D01*
X124299Y67979D01*
X124317Y67989D01*
X124336Y67997D01*
X124355Y68005D01*
X124374Y68012D01*
X124394Y68018D01*
X124414Y68023D01*
X124434Y68027D01*
X124455Y68029D01*
X124476Y68031D01*
X124496Y68032D01*
X127449D01*
Y67244D01*
D02*
G37*
G36*
Y65669D02*
X124496D01*
X124476Y65670D01*
X124455Y65671D01*
X124434Y65674D01*
X124414Y65678D01*
X124394Y65683D01*
X124374Y65689D01*
X124355Y65695D01*
X124336Y65703D01*
X124317Y65712D01*
X124299Y65722D01*
X124282Y65733D01*
X124265Y65745D01*
X124248Y65757D01*
X124233Y65770D01*
X124218Y65785D01*
X124204Y65799D01*
X124190Y65815D01*
X124178Y65832D01*
X124166Y65849D01*
X124155Y65866D01*
X124145Y65884D01*
X124136Y65903D01*
X124128Y65922D01*
X124122Y65941D01*
X124116Y65961D01*
X124111Y65981D01*
X124107Y66001D01*
X124104Y66022D01*
X124103Y66042D01*
X124102Y66063D01*
X124103Y66084D01*
X124104Y66104D01*
X124107Y66125D01*
X124111Y66145D01*
X124116Y66165D01*
X124122Y66185D01*
X124128Y66204D01*
X124136Y66223D01*
X124145Y66242D01*
X124155Y66260D01*
X124166Y66277D01*
X124178Y66294D01*
X124190Y66311D01*
X124204Y66326D01*
X124218Y66341D01*
X124233Y66356D01*
X124248Y66369D01*
X124265Y66382D01*
X124282Y66393D01*
X124299Y66404D01*
X124317Y66414D01*
X124336Y66423D01*
X124355Y66430D01*
X124374Y66437D01*
X124394Y66443D01*
X124414Y66448D01*
X124434Y66452D01*
X124455Y66454D01*
X124476Y66456D01*
X124496Y66457D01*
X127449D01*
Y65669D01*
D02*
G37*
D14*
X58103Y254000D02*
Y258000D01*
X76586Y254500D02*
X77500D01*
X74736Y256349D02*
X76586Y254500D01*
X74736Y256349D02*
Y259067D01*
X68831Y256086D02*
Y259067D01*
X61867Y261764D02*
X66134D01*
X68123Y255378D02*
X68831Y256086D01*
X60059Y258941D02*
X63622Y255378D01*
X68123D01*
X59044Y258941D02*
X61867Y261764D01*
X59044Y258941D02*
X60059D01*
X58103Y258000D02*
X59044Y258941D01*
X218293Y181000D02*
X219000D01*
X218293Y181000D02*
Y181000D01*
Y179707D02*
Y181000D01*
X218293Y178293D02*
Y179707D01*
X218293Y181000D02*
X219000Y180293D01*
X218293Y181000D02*
X218293Y181000D01*
X55093Y67343D02*
X68500D01*
X38750Y51000D02*
X55093Y67343D01*
X161500Y296500D02*
X181500Y316500D01*
Y317000D02*
X206500Y342000D01*
X78172Y296500D02*
X161500D01*
X181500Y316500D02*
Y317000D01*
X206500Y342000D02*
Y359500D01*
X163929Y208004D02*
X163957Y208032D01*
Y223675D02*
X164146Y223864D01*
X163957Y208032D02*
Y223675D01*
X182055Y214000D02*
X190000D01*
X176559Y208504D02*
X182055Y214000D01*
X205500Y213500D02*
X206500Y212500D01*
X190500Y213500D02*
X205500D01*
X190000Y214000D02*
X190500Y213500D01*
X219000Y189000D02*
X226500Y196500D01*
Y229000D01*
X76672Y273892D02*
Y278914D01*
X74779Y272000D02*
X76672Y273892D01*
X76500Y280332D02*
X77332Y279500D01*
X85500D01*
X77257D02*
X77332D01*
X76672Y278914D02*
X77257Y279500D01*
X76500Y280332D02*
Y294828D01*
X70799Y270366D02*
Y279201D01*
X49500Y300500D02*
X70799Y279201D01*
X61500Y293000D02*
X72768Y281732D01*
Y270366D02*
Y281732D01*
X76500Y294828D02*
X78172Y296500D01*
X117213Y70787D02*
X118000Y70000D01*
X81500Y263776D02*
X87724D01*
X78500D02*
X81500D01*
X80914Y265701D02*
X81500Y265115D01*
X77433Y265701D02*
X80914D01*
X81500Y263776D02*
Y265115D01*
X72799Y239201D02*
X73000Y239000D01*
X72799Y239201D02*
Y258000D01*
X87724Y263776D02*
X107000Y244500D01*
X113928Y266000D02*
X114300Y265628D01*
X101260Y266000D02*
X113928D01*
X173250Y197750D02*
X182000Y189000D01*
X219000D01*
Y181000D02*
Y189000D01*
X184626Y196874D02*
X191941D01*
X184000Y197500D02*
Y202496D01*
Y197500D02*
X184626Y196874D01*
X177000Y202496D02*
X184000D01*
X148883Y192895D02*
X149000Y193012D01*
Y203496D01*
X163929Y195741D02*
Y201291D01*
Y190190D02*
Y195741D01*
X165898Y197709D02*
Y201291D01*
X163929Y195741D02*
X165898Y197709D01*
X161414Y197000D02*
X161929Y197515D01*
Y200000D01*
X163775Y190036D02*
X163929Y190190D01*
X153000Y197000D02*
X161414D01*
X123586Y250086D02*
X239914D01*
X107500Y234000D02*
X123586Y250086D01*
X107000Y175806D02*
Y234000D01*
X107500D01*
X107000D02*
Y244500D01*
X231414Y234000D02*
X232000Y233414D01*
X181750Y234000D02*
X231414D01*
X239914Y250086D02*
X240500Y249500D01*
X181000Y233250D02*
X181750Y234000D01*
X232000Y165086D02*
Y233414D01*
X240500Y104000D02*
Y249500D01*
X181000Y231000D02*
Y233250D01*
X185000Y48500D02*
X240500Y104000D01*
X153732Y48500D02*
X185000D01*
X145390Y56842D02*
X153732Y48500D01*
X145390Y56842D02*
Y57039D01*
X143232Y59000D02*
X143429D01*
X145390Y57039D01*
X37624Y46439D02*
X67876D01*
X68500Y45815D01*
X37000Y47063D02*
X37624Y46439D01*
X56000Y265567D02*
Y269342D01*
X52342Y273000D02*
X56000Y269342D01*
X176500Y226500D02*
X181000Y231000D01*
Y229000D02*
Y231000D01*
X112500Y142500D02*
X134500Y164500D01*
X141000D01*
X176500Y208504D02*
Y226500D01*
X44000Y117000D02*
X56000Y105000D01*
Y93657D02*
Y105000D01*
X72500Y142500D02*
X112500D01*
X219000Y179000D02*
Y180293D01*
Y181000D01*
X98194Y163000D02*
X109000Y173806D01*
Y156000D02*
Y173806D01*
X93000Y163000D02*
X98194D01*
X56000Y265567D02*
X59689D01*
X117500Y32500D02*
X129345Y44345D01*
X13500Y219378D02*
X59268Y265146D01*
X14086Y32500D02*
X117500D01*
X13500Y33086D02*
X14086Y32500D01*
X13500Y33086D02*
Y219378D01*
X50500Y290500D02*
X54000D01*
X42000Y299000D02*
X50500Y290500D01*
X49500Y300500D02*
Y325000D01*
X42000Y299000D02*
Y344000D01*
X68708Y269603D02*
X68756Y269555D01*
X54000Y290500D02*
X68708Y275792D01*
X111000Y146586D02*
Y171806D01*
X109000Y173806D02*
X111000Y171806D01*
X47000Y146000D02*
X110414D01*
X111000Y146586D01*
X141000Y164500D02*
X231414Y164500D01*
X169441Y206803D02*
Y208772D01*
X169472Y206803D02*
X169500Y206776D01*
X169441Y206803D02*
X169472D01*
X169500Y204862D02*
Y206776D01*
X93500Y236500D02*
Y246500D01*
X77780Y261720D02*
X93000Y246500D01*
X76591Y261720D02*
X77780D01*
X93000Y246500D02*
X93500D01*
X42000Y141000D02*
X47000Y146000D01*
X42000Y104132D02*
Y141000D01*
Y104132D02*
X55093Y91039D01*
Y67343D02*
Y91039D01*
X57000Y127000D02*
X72500Y142500D01*
X63086Y148500D02*
X101500D01*
X62500Y149086D02*
X63086Y148500D01*
X62500Y149086D02*
Y242000D01*
X109000Y173806D02*
X141500Y206306D01*
X107000Y175806D02*
X109000Y173806D01*
X142500Y133500D02*
X143000Y133000D01*
X168650Y221150D02*
Y230500D01*
X165858Y208004D02*
Y218358D01*
X168650Y221150D01*
X231414Y164500D02*
X232000Y165086D01*
X173250Y197750D02*
Y200612D01*
X218293Y178293D02*
X219000Y179000D01*
X171000Y202862D02*
X173250Y200612D01*
X170500Y202862D02*
X171000D01*
X101500Y148500D02*
X109000Y156000D01*
X44000Y127000D02*
X57000D01*
X177000Y208504D02*
X182500D01*
X176559D02*
X177000D01*
X44000Y117000D02*
Y127000D01*
X56000Y93657D02*
X65658Y84000D01*
X139000Y77586D02*
Y98500D01*
X138000Y99500D02*
X139000Y98500D01*
X153000Y209504D02*
X155000D01*
X149000D02*
X153000D01*
X142086D02*
X149000D01*
X153000Y197000D02*
Y209504D01*
X141500Y208918D02*
X142086Y209504D01*
X141500Y206306D02*
Y208918D01*
X155000Y209504D02*
X157032D01*
X155000Y207389D02*
Y209504D01*
Y203452D02*
X155586Y202866D01*
X155000Y203452D02*
Y205420D01*
X155586Y202866D02*
X158417D01*
X155000Y205420D02*
X155586Y204835D01*
X155000Y205420D02*
Y207389D01*
X155586Y204835D02*
X158417D01*
X155586Y206803D02*
X158417D01*
X155000Y207389D02*
X155586Y206803D01*
X74000Y163000D02*
X93000D01*
Y214000D02*
X93500Y214500D01*
Y226500D01*
X176500Y208504D02*
X176559D01*
X176232Y208772D02*
X176500Y208504D01*
X169441Y208772D02*
X176232D01*
X159000Y230150D02*
X159350Y230500D01*
X159000Y221000D02*
Y230150D01*
X162000Y208004D02*
Y218000D01*
X159000Y221000D02*
X162000Y218000D01*
X157764Y208772D02*
X158417D01*
X157032Y209504D02*
X157764Y208772D01*
X73000Y164000D02*
X74000Y163000D01*
X27500Y288500D02*
X52335D01*
X60268Y280567D01*
Y268153D02*
Y280567D01*
X68708Y269603D02*
Y275792D01*
X61500Y293000D02*
Y308500D01*
X63913Y267713D02*
X64268D01*
X60268Y268153D02*
X60853Y267567D01*
X63768D02*
X63913Y267713D01*
X60853Y267567D02*
X63768D01*
X59689Y265567D02*
X65268D01*
X59268Y265146D02*
X59689Y265567D01*
X92071Y267669D02*
X93240Y266500D01*
X77433Y267669D02*
X92071D01*
X59268Y264318D02*
Y265146D01*
X59854Y263732D02*
X66134D01*
X59268Y264318D02*
X59854Y263732D01*
X73000Y215000D02*
Y229000D01*
X70799Y250299D02*
Y259067D01*
X62500Y242000D02*
X70799Y250299D01*
X138414Y77000D02*
X139000Y77586D01*
X133500Y59571D02*
X133571Y59500D01*
X142000Y59732D02*
X142232Y59500D01*
X37000Y51000D02*
X38750D01*
X68203Y47360D02*
X68500Y47657D01*
X37000Y47063D02*
X37297Y47360D01*
X0Y0D02*
X265500D01*
X0Y385000D02*
X265500D01*
Y0D02*
Y385000D01*
X0Y0D02*
Y385000D01*
D15*
X158417Y208772D02*
D03*
Y206803D02*
D03*
Y204835D02*
D03*
Y202866D02*
D03*
X169441D02*
D03*
Y204835D02*
D03*
Y206803D02*
D03*
Y208772D02*
D03*
D16*
X161961Y201291D02*
D03*
X163929D02*
D03*
X165898D02*
D03*
D17*
X77433Y267669D02*
D03*
Y265701D02*
D03*
Y263732D02*
D03*
Y261764D02*
D03*
X66134D02*
D03*
Y263732D02*
D03*
Y265701D02*
D03*
Y267669D02*
D03*
D18*
X68831Y270366D02*
D03*
X70799D02*
D03*
X72768D02*
D03*
X74736D02*
D03*
Y259067D02*
D03*
X72768D02*
D03*
X70799D02*
D03*
X68831D02*
D03*
D19*
X37000Y51000D02*
D03*
Y47063D02*
D03*
D20*
X27059Y56118D02*
D03*
Y41945D02*
D03*
D21*
X177000Y202496D02*
D03*
Y208504D02*
D03*
X184000Y202496D02*
D03*
Y208504D02*
D03*
X149000Y203496D02*
D03*
Y209504D02*
D03*
D22*
X101260Y266000D02*
D03*
X93740D02*
D03*
D23*
X134768Y59000D02*
D03*
X143232D02*
D03*
D24*
X158850Y236000D02*
D03*
X168150D02*
D03*
D35*
X55000Y105000D02*
D03*
X138000Y97500D02*
D03*
X166000Y360000D02*
D03*
X148500Y73500D02*
D03*
X95000Y325000D02*
D03*
X219000Y179000D02*
D03*
X181000Y229000D02*
D03*
X102500Y127000D02*
D03*
D36*
X100500Y105000D02*
D03*
X183500Y97500D02*
D03*
X176000Y360000D02*
D03*
X186000D02*
D03*
X196000D02*
D03*
X206000D02*
D03*
X194000Y73500D02*
D03*
X49500Y325000D02*
D03*
X173500Y179000D02*
D03*
X226500Y229000D02*
D03*
X73000D02*
D03*
Y239000D02*
D03*
X93500Y226500D02*
D03*
Y236500D02*
D03*
X27500Y288500D02*
D03*
X57000Y127000D02*
D03*
D37*
X61500Y308500D02*
D03*
X73000Y215000D02*
D03*
X93000Y163000D02*
D03*
D38*
X125500Y308500D02*
D03*
D39*
X206000Y211000D02*
D03*
X143000Y123000D02*
D03*
D40*
X107000Y244500D02*
D03*
X48000Y60000D02*
D03*
X206000Y201000D02*
D03*
X143000Y133000D02*
D03*
D44*
X42200Y347500D02*
D03*
D45*
X119000D02*
D03*
D46*
X73000Y164000D02*
D03*
X93000Y214000D02*
D03*
D47*
X27500Y334000D02*
D03*
D50*
X118000Y70000D02*
D03*
D51*
X125776Y73937D02*
D03*
Y72362D02*
D03*
Y70787D02*
D03*
Y69213D02*
D03*
Y67638D02*
D03*
Y66063D02*
D03*
X110224D02*
D03*
Y67638D02*
D03*
Y69213D02*
D03*
Y70787D02*
D03*
Y72362D02*
D03*
Y73937D02*
D03*
D52*
X165858Y208004D02*
D03*
X162000D02*
D03*
D53*
X163929D02*
D03*
D54*
X71784Y264717D02*
D03*
D55*
X91500Y93500D02*
X94500Y90500D01*
Y71287D02*
X95000Y70787D01*
X94500Y71287D02*
Y90500D01*
X95000Y70787D02*
X110224D01*
X98000Y73638D02*
Y92500D01*
Y73638D02*
X99276Y72362D01*
X110224D01*
X101336Y73937D02*
X110224D01*
X101500Y96000D02*
Y105000D01*
X68500Y65500D02*
X69063Y66063D01*
X110224D01*
X100715Y74558D02*
X101336Y73937D01*
X100715Y74558D02*
Y81714D01*
X132500Y113500D01*
X98000Y92500D02*
X101500Y96000D01*
X91500Y69086D02*
Y83414D01*
X92941Y67645D02*
X110028D01*
X91500Y69086D02*
X92941Y67645D01*
X150500Y153500D02*
X163000Y141000D01*
X158500Y113500D02*
X163000Y118000D01*
Y141000D01*
X102500Y127000D02*
X129000Y153500D01*
X150500D01*
X132500Y113500D02*
X158500D01*
X102500Y127000D02*
X109000D01*
X115500Y133500D01*
X142500D01*
X100500Y105000D02*
X118500Y123000D01*
X143000D01*
X85343Y84000D02*
X90914D01*
X91500Y83414D01*
D56*
X139862Y67638D02*
X142000Y65500D01*
X125776Y67638D02*
X139862D01*
X129345Y44345D02*
Y66063D01*
X132914D01*
X125776D02*
X129345D01*
X131126Y77000D02*
X138414D01*
X125776Y73937D02*
X128063D01*
X131126Y77000D01*
X127449Y70787D02*
X137787D01*
X140500Y73500D02*
X148500D01*
X137787Y70787D02*
X140500Y73500D01*
X132914Y66063D02*
X133500Y65477D01*
Y59571D02*
Y65477D01*
X142000Y59732D02*
Y65500D01*
D57*
X12500Y372500D02*
D03*
X253000D02*
D03*
Y12500D02*
D03*
X12500D02*
D03*
D58*
X121543Y68032D02*
D03*
Y71969D02*
D03*
X118000Y68032D02*
D03*
Y71969D02*
D03*
X114457Y68032D02*
D03*
Y71969D02*
D03*
D59*
X69500Y262433D02*
D03*
X74067D02*
D03*
Y267000D02*
D03*
X69500D02*
D03*
X71784Y264717D02*
D03*
D60*
X85500Y279500D02*
D03*
X105185D02*
D03*
X32658Y273000D02*
D03*
X52342D02*
D03*
X68500Y45815D02*
D03*
Y65500D02*
D03*
X65658Y84000D02*
D03*
X85343D02*
D03*
D61*
X77500Y254500D02*
D03*
X58000Y254000D02*
D03*
X190000Y214000D02*
D03*
X181500Y316500D02*
D03*
X114300Y265628D02*
D03*
X191941Y196874D02*
D03*
X148883Y192895D02*
D03*
X163775Y190036D02*
D03*
X139000Y77586D02*
D03*
D62*
X91500Y93500D02*
D03*
X164146Y223864D02*
D03*
M02*
