G04*
G04 #@! TF.GenerationSoftware,Altium Limited,Altium Designer,22.0.2 (36)*
G04*
G04 Layer_Color=16711935*
%FSLAX25Y25*%
%MOIN*%
G70*
G04*
G04 #@! TF.SameCoordinates,67E39877-474A-4780-B11E-DC456855A8CC*
G04*
G04*
G04 #@! TF.FilePolarity,Positive*
G04*
G01*
G75*
%ADD10C,0.00787*%
%ADD11C,0.02000*%
%ADD13C,0.00500*%
%ADD14C,0.01000*%
%ADD63C,0.00000*%
%ADD64C,0.00100*%
D10*
X106937Y73937D02*
X106150D01*
X106937D01*
X166252Y213693D02*
X165465D01*
X166252D01*
X62433Y268457D02*
X61646D01*
X62433D01*
X166394Y368543D02*
X165606D01*
X166394D01*
D11*
X46000Y51000D02*
X45649Y51964D01*
X44761Y52477D01*
X43750Y52299D01*
X43091Y51513D01*
Y50487D01*
X43750Y49701D01*
X44761Y49523D01*
X45649Y50036D01*
X46000Y51000D01*
D13*
X125874Y65079D02*
Y74921D01*
X110126Y65079D02*
Y74921D01*
Y65079D02*
X125874D01*
X110126Y74921D02*
X125874D01*
X158024Y200898D02*
X169835D01*
X158024D02*
Y210740D01*
X169835D01*
Y200898D02*
Y210740D01*
X65878Y258811D02*
Y270622D01*
X77689Y258811D02*
Y270622D01*
X65878D02*
X77689D01*
X65878Y258811D02*
X77689D01*
X175150Y208965D02*
X178850D01*
X175150Y202035D02*
X178850D01*
Y208965D01*
X175150Y202035D02*
Y208965D01*
X182150D02*
X185850D01*
X182150Y202035D02*
X185850D01*
Y208965D01*
X182150Y202035D02*
Y208965D01*
X161799Y355394D02*
Y364606D01*
X210201D01*
Y355394D02*
Y364606D01*
X161799Y355394D02*
X210201D01*
X106169Y271626D02*
Y287374D01*
X84516D02*
X106169D01*
X84516Y271626D02*
Y287374D01*
Y271626D02*
X106169D01*
X93366Y263323D02*
Y268677D01*
X101634Y263323D02*
Y268677D01*
X93366D02*
X101634D01*
X93366Y263323D02*
X101634D01*
X53327Y265126D02*
Y280874D01*
X31673D02*
X53327D01*
X31673Y265126D02*
Y280874D01*
Y265126D02*
X53327D01*
X134965Y61559D02*
X143035D01*
X134965Y56441D02*
X143035D01*
X134965D02*
Y61559D01*
X143035Y56441D02*
Y61559D01*
X60626Y66484D02*
X76374D01*
X60626Y44831D02*
Y66484D01*
Y44831D02*
X76374D01*
Y66484D01*
X86327Y76126D02*
Y91874D01*
X64673D02*
X86327D01*
X64673Y76126D02*
Y91874D01*
Y76126D02*
X86327D01*
X147150Y209965D02*
X150850D01*
X147150Y203035D02*
X150850D01*
Y209965D01*
X147150Y203035D02*
Y209965D01*
D14*
X0Y0D02*
X265500D01*
X0Y385000D02*
X265500D01*
Y0D02*
Y385000D01*
X0Y0D02*
Y385000D01*
D63*
X210200Y211000D02*
X209700Y211866D01*
X208700D01*
X208200Y211000D01*
X208700Y210134D01*
X209700D01*
X210200Y211000D01*
X140800Y123000D02*
X140300Y123866D01*
X139300D01*
X138800Y123000D01*
X139300Y122134D01*
X140300D01*
X140800Y123000D01*
X79300Y234000D02*
X79222Y234985D01*
X78992Y235947D01*
X78613Y236860D01*
X78097Y237703D01*
X77455Y238455D01*
X76703Y239097D01*
X75860Y239613D01*
X74947Y239992D01*
X73985Y240222D01*
X73000Y240300D01*
X72014Y240222D01*
X71053Y239992D01*
X70140Y239613D01*
X69297Y239097D01*
X68545Y238455D01*
X67903Y237703D01*
X67387Y236860D01*
X67008Y235947D01*
X66778Y234985D01*
X66700Y234000D01*
X66778Y233014D01*
X67008Y232053D01*
X67387Y231140D01*
X67903Y230297D01*
X68545Y229545D01*
X69297Y228903D01*
X70140Y228387D01*
X71053Y228008D01*
X72014Y227778D01*
X73000Y227700D01*
X73985Y227778D01*
X74947Y228008D01*
X75860Y228387D01*
X76703Y228903D01*
X77455Y229545D01*
X78097Y230297D01*
X78613Y231140D01*
X78992Y232053D01*
X79222Y233014D01*
X79300Y234000D01*
X99800Y231500D02*
X99722Y232486D01*
X99492Y233447D01*
X99113Y234360D01*
X98597Y235203D01*
X97955Y235955D01*
X97203Y236597D01*
X96360Y237113D01*
X95447Y237492D01*
X94485Y237722D01*
X93500Y237800D01*
X92514Y237722D01*
X91553Y237492D01*
X90640Y237113D01*
X89797Y236597D01*
X89045Y235955D01*
X88403Y235203D01*
X87887Y234360D01*
X87508Y233447D01*
X87278Y232486D01*
X87200Y231500D01*
X87278Y230515D01*
X87508Y229553D01*
X87887Y228640D01*
X88403Y227797D01*
X89045Y227045D01*
X89797Y226403D01*
X90640Y225887D01*
X91553Y225508D01*
X92514Y225278D01*
X93500Y225200D01*
X94485Y225278D01*
X95447Y225508D01*
X96360Y225887D01*
X97203Y226403D01*
X97955Y227045D01*
X98597Y227797D01*
X99113Y228640D01*
X99492Y229553D01*
X99722Y230515D01*
X99800Y231500D01*
D64*
X55000Y105000D02*
X64950D01*
X90550D02*
X100500D01*
X64950Y100100D02*
X90550D01*
Y109900D01*
X64950D02*
X90550D01*
X64950Y100100D02*
Y109900D01*
X114750Y300500D02*
Y316500D01*
X72250Y300500D02*
X114750D01*
X72250D02*
Y316500D01*
X114750D01*
X61500Y308500D02*
X72250D01*
X114750D02*
X125500D01*
X147950Y92600D02*
Y102400D01*
X173550D01*
Y92600D02*
Y102400D01*
X147950Y92600D02*
X173550D01*
Y97500D02*
X183500D01*
X138000D02*
X147950D01*
X24096Y41181D02*
Y56881D01*
Y41181D02*
X35496D01*
Y56881D01*
X24096D02*
X35496D01*
X210700Y196000D02*
Y216000D01*
X201300D02*
X210700D01*
X201300Y196000D02*
Y216000D01*
Y196000D02*
X210700D01*
X138300Y118000D02*
Y138000D01*
Y118000D02*
X147700D01*
Y138000D01*
X138300D02*
X147700D01*
X158450Y68600D02*
Y78400D01*
X184050D01*
Y68600D02*
Y78400D01*
X158450Y68600D02*
X184050D01*
Y73500D02*
X194000D01*
X148500D02*
X158450D01*
X106200Y338050D02*
Y356950D01*
X55000Y338050D02*
X106200D01*
X55000D02*
Y356950D01*
X106200D01*
X42200Y347500D02*
X55000D01*
X106200D02*
X119000D01*
X85050Y320100D02*
Y329900D01*
X59450Y320100D02*
X85050D01*
X59450D02*
Y329900D01*
X85050D01*
X49500Y325000D02*
X59450D01*
X85050D02*
X95000D01*
X209050Y174100D02*
Y183900D01*
X183450Y174100D02*
X209050D01*
X183450D02*
Y183900D01*
X209050D01*
X173500Y179000D02*
X183450D01*
X209050D02*
X219000D01*
X190950Y224100D02*
Y233900D01*
X216550D01*
Y224100D02*
Y233900D01*
X190950Y224100D02*
X216550D01*
Y229000D02*
X226500D01*
X181000D02*
X190950D01*
X169800Y229700D02*
Y242300D01*
X157200Y229700D02*
X169800D01*
X157200D02*
Y242300D01*
X169800D01*
X157200Y229700D02*
X161900D01*
X157200D02*
Y242300D01*
X161900D01*
Y229700D02*
Y242300D01*
X165100D02*
X169800D01*
Y229700D02*
Y242300D01*
X165100Y229700D02*
X169800D01*
X165100D02*
Y242300D01*
X70500Y242800D02*
X75500D01*
X72500D02*
X73000Y245800D01*
X72000Y242800D02*
X73000Y245800D01*
X71500Y242800D02*
X73000Y245800D01*
X71000Y242800D02*
X73000Y245800D01*
X70500Y242800D02*
X73000Y245800D01*
X73500Y242800D01*
X73000Y245800D02*
X74000Y242800D01*
X73000Y245800D02*
X74500Y242800D01*
X73000Y245800D02*
X75000Y242800D01*
X73000Y245800D02*
X75500Y242800D01*
X70500Y245800D02*
X75500D01*
X73000Y241800D02*
Y246800D01*
X68100Y175000D02*
X77900D01*
X68100D02*
Y204000D01*
X77900D01*
Y175000D02*
Y204000D01*
X73000D02*
Y215000D01*
Y164000D02*
Y175000D01*
X88100Y203000D02*
X97900D01*
Y174000D02*
Y203000D01*
X88100Y174000D02*
X97900D01*
X88100D02*
Y203000D01*
X93000Y163000D02*
Y174000D01*
Y203000D02*
Y214000D01*
X91000Y240300D02*
X96000D01*
X93000D02*
X93500Y243300D01*
X92500Y240300D02*
X93500Y243300D01*
X92000Y240300D02*
X93500Y243300D01*
X91500Y240300D02*
X93500Y243300D01*
X91000Y240300D02*
X93500Y243300D01*
X94000Y240300D01*
X93500Y243300D02*
X94500Y240300D01*
X93500Y243300D02*
X95000Y240300D01*
X93500Y243300D02*
X95500Y240300D01*
X93500Y243300D02*
X96000Y240300D01*
X91000Y243300D02*
X96000D01*
X93500Y239300D02*
Y244300D01*
X22600Y324050D02*
X32400D01*
Y298450D02*
Y324050D01*
X22600Y298450D02*
X32400D01*
X22600D02*
Y324050D01*
X27500Y288500D02*
Y298450D01*
Y324050D02*
Y334000D01*
X92550Y122100D02*
Y131900D01*
X66950Y122100D02*
X92550D01*
X66950D02*
Y131900D01*
X92550D01*
X57000Y127000D02*
X66950D01*
X92550D02*
X102500D01*
M02*
