G04*
G04 #@! TF.GenerationSoftware,Altium Limited,Altium Designer,22.0.2 (36)*
G04*
G04 Layer_Color=8421504*
%FSLAX25Y25*%
%MOIN*%
G70*
G04*
G04 #@! TF.SameCoordinates,67E39877-474A-4780-B11E-DC456855A8CC*
G04*
G04*
G04 #@! TF.FilePolarity,Positive*
G04*
G01*
G75*
%ADD14C,0.01000*%
%ADD15R,0.02362X0.00945*%
%ADD16R,0.00945X0.02362*%
G04:AMPARAMS|DCode=17|XSize=33.86mil|YSize=10.24mil|CornerRadius=1.28mil|HoleSize=0mil|Usage=FLASHONLY|Rotation=0.000|XOffset=0mil|YOffset=0mil|HoleType=Round|Shape=RoundedRectangle|*
%AMROUNDEDRECTD17*
21,1,0.03386,0.00768,0,0,0.0*
21,1,0.03130,0.01024,0,0,0.0*
1,1,0.00256,0.01565,-0.00384*
1,1,0.00256,-0.01565,-0.00384*
1,1,0.00256,-0.01565,0.00384*
1,1,0.00256,0.01565,0.00384*
%
%ADD17ROUNDEDRECTD17*%
G04:AMPARAMS|DCode=18|XSize=33.86mil|YSize=10.24mil|CornerRadius=1.28mil|HoleSize=0mil|Usage=FLASHONLY|Rotation=90.000|XOffset=0mil|YOffset=0mil|HoleType=Round|Shape=RoundedRectangle|*
%AMROUNDEDRECTD18*
21,1,0.03386,0.00768,0,0,90.0*
21,1,0.03130,0.01024,0,0,90.0*
1,1,0.00256,0.00384,0.01565*
1,1,0.00256,0.00384,-0.01565*
1,1,0.00256,-0.00384,-0.01565*
1,1,0.00256,-0.00384,0.01565*
%
%ADD18ROUNDEDRECTD18*%
%ADD19R,0.06100X0.02600*%
%ADD20R,0.07500X0.05100*%
%ADD21R,0.03858X0.03740*%
%ADD22R,0.03622X0.05433*%
%ADD23R,0.05315X0.04921*%
%ADD24R,0.06100X0.12600*%
G36*
X73870Y262630D02*
X69697D01*
Y266803D01*
X73870D01*
Y262630D01*
D02*
G37*
G36*
X166291Y208388D02*
X165425D01*
Y211518D01*
X166291D01*
Y208388D01*
D02*
G37*
G36*
X164402D02*
X163457D01*
Y211518D01*
X164402D01*
Y208388D01*
D02*
G37*
G36*
X162433D02*
X161567D01*
Y211518D01*
X162433D01*
Y208388D01*
D02*
G37*
G36*
X166291Y204490D02*
X165425D01*
Y207620D01*
X166291D01*
Y204490D01*
D02*
G37*
G36*
X164402D02*
X163457D01*
Y207620D01*
X164402D01*
Y204490D01*
D02*
G37*
G36*
X162433D02*
X161567D01*
Y207620D01*
X162433D01*
Y204490D01*
D02*
G37*
G36*
X122823Y74331D02*
X121839D01*
Y76398D01*
X122823D01*
Y74331D01*
D02*
G37*
G36*
X114161D02*
X113177D01*
Y76398D01*
X114161D01*
Y74331D01*
D02*
G37*
G36*
X127350Y73937D02*
Y73543D01*
X124594D01*
X124574Y73544D01*
X124553Y73545D01*
X124533Y73548D01*
X124513Y73552D01*
X124493Y73557D01*
X124473Y73563D01*
X124453Y73570D01*
X124434Y73577D01*
X124416Y73586D01*
X124398Y73596D01*
X124380Y73607D01*
X124363Y73619D01*
X124347Y73631D01*
X124331Y73644D01*
X124316Y73659D01*
X124302Y73674D01*
X124288Y73689D01*
X124276Y73706D01*
X124264Y73723D01*
X124253Y73740D01*
X124244Y73758D01*
X124235Y73777D01*
X124227Y73796D01*
X124220Y73815D01*
X124214Y73835D01*
X124209Y73855D01*
X124206Y73875D01*
X124203Y73896D01*
X124201Y73916D01*
X124201Y73937D01*
X124201Y73958D01*
X124203Y73978D01*
X124206Y73999D01*
X124209Y74019D01*
X124214Y74039D01*
X124220Y74059D01*
X124227Y74078D01*
X124235Y74097D01*
X124244Y74116D01*
X124253Y74134D01*
X124264Y74151D01*
X124276Y74168D01*
X124288Y74185D01*
X124302Y74200D01*
X124316Y74215D01*
X124331Y74230D01*
X124347Y74243D01*
X124363Y74256D01*
X124380Y74267D01*
X124398Y74278D01*
X124416Y74288D01*
X124434Y74297D01*
X124453Y74305D01*
X124473Y74311D01*
X124493Y74317D01*
X124513Y74322D01*
X124533Y74326D01*
X124553Y74329D01*
X124574Y74330D01*
X124594Y74331D01*
X127350D01*
Y73937D01*
D02*
G37*
G36*
X111426Y74330D02*
X111447Y74329D01*
X111467Y74326D01*
X111487Y74322D01*
X111507Y74317D01*
X111527Y74311D01*
X111547Y74305D01*
X111566Y74297D01*
X111584Y74288D01*
X111602Y74278D01*
X111620Y74267D01*
X111637Y74256D01*
X111653Y74243D01*
X111669Y74230D01*
X111684Y74215D01*
X111698Y74200D01*
X111712Y74185D01*
X111724Y74168D01*
X111736Y74151D01*
X111747Y74134D01*
X111756Y74116D01*
X111765Y74097D01*
X111773Y74078D01*
X111780Y74059D01*
X111786Y74039D01*
X111791Y74019D01*
X111794Y73999D01*
X111797Y73978D01*
X111799Y73958D01*
X111799Y73937D01*
X111799Y73916D01*
X111797Y73896D01*
X111794Y73875D01*
X111791Y73855D01*
X111786Y73835D01*
X111780Y73815D01*
X111773Y73796D01*
X111765Y73777D01*
X111756Y73758D01*
X111747Y73740D01*
X111736Y73723D01*
X111724Y73706D01*
X111712Y73689D01*
X111698Y73674D01*
X111684Y73659D01*
X111669Y73644D01*
X111653Y73631D01*
X111637Y73619D01*
X111620Y73607D01*
X111602Y73596D01*
X111584Y73586D01*
X111566Y73577D01*
X111547Y73570D01*
X111527Y73563D01*
X111507Y73557D01*
X111487Y73552D01*
X111467Y73548D01*
X111447Y73545D01*
X111426Y73544D01*
X111406Y73543D01*
X108650D01*
Y73937D01*
Y74331D01*
X111406D01*
X111426Y74330D01*
D02*
G37*
G36*
X127350Y72362D02*
Y71969D01*
X124594D01*
X124574Y71969D01*
X124553Y71971D01*
X124533Y71973D01*
X124513Y71977D01*
X124493Y71982D01*
X124473Y71988D01*
X124453Y71995D01*
X124434Y72003D01*
X124416Y72011D01*
X124398Y72021D01*
X124380Y72032D01*
X124363Y72044D01*
X124347Y72056D01*
X124331Y72070D01*
X124316Y72084D01*
X124302Y72099D01*
X124288Y72114D01*
X124276Y72131D01*
X124264Y72148D01*
X124253Y72165D01*
X124244Y72184D01*
X124235Y72202D01*
X124227Y72221D01*
X124220Y72241D01*
X124214Y72260D01*
X124209Y72280D01*
X124206Y72301D01*
X124203Y72321D01*
X124201Y72342D01*
X124201Y72362D01*
X124201Y72383D01*
X124203Y72403D01*
X124206Y72424D01*
X124209Y72444D01*
X124214Y72464D01*
X124220Y72484D01*
X124227Y72503D01*
X124235Y72522D01*
X124244Y72541D01*
X124253Y72559D01*
X124264Y72577D01*
X124276Y72594D01*
X124288Y72610D01*
X124302Y72626D01*
X124316Y72641D01*
X124331Y72655D01*
X124347Y72668D01*
X124363Y72681D01*
X124380Y72692D01*
X124398Y72703D01*
X124416Y72713D01*
X124434Y72722D01*
X124453Y72730D01*
X124473Y72737D01*
X124493Y72742D01*
X124513Y72747D01*
X124533Y72751D01*
X124553Y72754D01*
X124574Y72755D01*
X124594Y72756D01*
X127350D01*
Y72362D01*
D02*
G37*
G36*
X111426Y72755D02*
X111447Y72754D01*
X111467Y72751D01*
X111487Y72747D01*
X111507Y72742D01*
X111527Y72737D01*
X111547Y72730D01*
X111566Y72722D01*
X111584Y72713D01*
X111602Y72703D01*
X111620Y72692D01*
X111637Y72681D01*
X111653Y72668D01*
X111669Y72655D01*
X111684Y72641D01*
X111698Y72626D01*
X111712Y72610D01*
X111724Y72594D01*
X111736Y72577D01*
X111747Y72559D01*
X111756Y72541D01*
X111765Y72522D01*
X111773Y72503D01*
X111780Y72484D01*
X111786Y72464D01*
X111791Y72444D01*
X111794Y72424D01*
X111797Y72403D01*
X111799Y72383D01*
X111799Y72362D01*
X111799Y72342D01*
X111797Y72321D01*
X111794Y72301D01*
X111791Y72280D01*
X111786Y72260D01*
X111780Y72241D01*
X111773Y72221D01*
X111765Y72202D01*
X111756Y72184D01*
X111747Y72165D01*
X111736Y72148D01*
X111724Y72131D01*
X111712Y72114D01*
X111698Y72099D01*
X111684Y72084D01*
X111669Y72070D01*
X111653Y72056D01*
X111637Y72044D01*
X111620Y72032D01*
X111602Y72021D01*
X111584Y72011D01*
X111566Y72003D01*
X111547Y71995D01*
X111527Y71988D01*
X111507Y71982D01*
X111487Y71977D01*
X111467Y71973D01*
X111447Y71971D01*
X111426Y71969D01*
X111406Y71969D01*
X108650D01*
Y72362D01*
Y72756D01*
X111406D01*
X111426Y72755D01*
D02*
G37*
G36*
X127350Y70787D02*
Y70394D01*
X124594D01*
X124574Y70394D01*
X124553Y70396D01*
X124533Y70399D01*
X124513Y70402D01*
X124493Y70407D01*
X124473Y70413D01*
X124453Y70420D01*
X124434Y70428D01*
X124416Y70437D01*
X124398Y70446D01*
X124380Y70457D01*
X124363Y70469D01*
X124347Y70481D01*
X124331Y70495D01*
X124316Y70509D01*
X124302Y70524D01*
X124288Y70540D01*
X124276Y70556D01*
X124264Y70573D01*
X124253Y70591D01*
X124244Y70609D01*
X124235Y70627D01*
X124227Y70646D01*
X124220Y70666D01*
X124214Y70685D01*
X124209Y70706D01*
X124206Y70726D01*
X124203Y70746D01*
X124201Y70767D01*
X124201Y70787D01*
X124201Y70808D01*
X124203Y70828D01*
X124206Y70849D01*
X124209Y70869D01*
X124214Y70889D01*
X124220Y70909D01*
X124227Y70929D01*
X124235Y70947D01*
X124244Y70966D01*
X124253Y70984D01*
X124264Y71002D01*
X124276Y71019D01*
X124288Y71035D01*
X124302Y71051D01*
X124316Y71066D01*
X124331Y71080D01*
X124347Y71093D01*
X124363Y71106D01*
X124380Y71118D01*
X124398Y71128D01*
X124416Y71138D01*
X124434Y71147D01*
X124453Y71155D01*
X124473Y71162D01*
X124493Y71168D01*
X124513Y71172D01*
X124533Y71176D01*
X124553Y71179D01*
X124574Y71181D01*
X124594Y71181D01*
X127350D01*
Y70787D01*
D02*
G37*
G36*
X122331Y70394D02*
X118394D01*
Y73543D01*
X122331D01*
Y70394D01*
D02*
G37*
G36*
X117606D02*
X113669D01*
Y73543D01*
X117606D01*
Y70394D01*
D02*
G37*
G36*
X111426Y71181D02*
X111447Y71179D01*
X111467Y71176D01*
X111487Y71172D01*
X111507Y71168D01*
X111527Y71162D01*
X111547Y71155D01*
X111566Y71147D01*
X111584Y71138D01*
X111602Y71128D01*
X111620Y71118D01*
X111637Y71106D01*
X111653Y71093D01*
X111669Y71080D01*
X111684Y71066D01*
X111698Y71051D01*
X111712Y71035D01*
X111724Y71019D01*
X111736Y71002D01*
X111747Y70984D01*
X111756Y70966D01*
X111765Y70947D01*
X111773Y70929D01*
X111780Y70909D01*
X111786Y70889D01*
X111791Y70869D01*
X111794Y70849D01*
X111797Y70828D01*
X111799Y70808D01*
X111799Y70787D01*
X111799Y70767D01*
X111797Y70746D01*
X111794Y70726D01*
X111791Y70706D01*
X111786Y70685D01*
X111780Y70666D01*
X111773Y70646D01*
X111765Y70627D01*
X111756Y70609D01*
X111747Y70591D01*
X111736Y70573D01*
X111724Y70556D01*
X111712Y70540D01*
X111698Y70524D01*
X111684Y70509D01*
X111669Y70495D01*
X111653Y70481D01*
X111637Y70469D01*
X111620Y70457D01*
X111602Y70446D01*
X111584Y70437D01*
X111566Y70428D01*
X111547Y70420D01*
X111527Y70413D01*
X111507Y70407D01*
X111487Y70402D01*
X111467Y70399D01*
X111447Y70396D01*
X111426Y70394D01*
X111406Y70394D01*
X108650D01*
Y70787D01*
Y71181D01*
X111406D01*
X111426Y71181D01*
D02*
G37*
G36*
X127350Y69213D02*
Y68819D01*
X124594D01*
X124574Y68819D01*
X124553Y68821D01*
X124533Y68824D01*
X124513Y68827D01*
X124493Y68832D01*
X124473Y68838D01*
X124453Y68845D01*
X124434Y68853D01*
X124416Y68862D01*
X124398Y68872D01*
X124380Y68882D01*
X124363Y68894D01*
X124347Y68907D01*
X124331Y68920D01*
X124316Y68934D01*
X124302Y68949D01*
X124288Y68965D01*
X124276Y68981D01*
X124264Y68998D01*
X124253Y69016D01*
X124244Y69034D01*
X124235Y69052D01*
X124227Y69072D01*
X124220Y69091D01*
X124214Y69111D01*
X124209Y69131D01*
X124206Y69151D01*
X124203Y69172D01*
X124201Y69192D01*
X124201Y69213D01*
X124201Y69233D01*
X124203Y69254D01*
X124206Y69274D01*
X124209Y69294D01*
X124214Y69314D01*
X124220Y69334D01*
X124227Y69354D01*
X124235Y69373D01*
X124244Y69391D01*
X124253Y69410D01*
X124264Y69427D01*
X124276Y69444D01*
X124288Y69460D01*
X124302Y69476D01*
X124316Y69491D01*
X124331Y69505D01*
X124347Y69519D01*
X124363Y69531D01*
X124380Y69543D01*
X124398Y69554D01*
X124416Y69563D01*
X124434Y69572D01*
X124453Y69580D01*
X124473Y69587D01*
X124493Y69593D01*
X124513Y69598D01*
X124533Y69601D01*
X124553Y69604D01*
X124574Y69606D01*
X124594Y69606D01*
X127350D01*
Y69213D01*
D02*
G37*
G36*
X111426Y69606D02*
X111447Y69604D01*
X111467Y69601D01*
X111487Y69598D01*
X111507Y69593D01*
X111527Y69587D01*
X111547Y69580D01*
X111566Y69572D01*
X111584Y69563D01*
X111602Y69554D01*
X111620Y69543D01*
X111637Y69531D01*
X111653Y69519D01*
X111669Y69505D01*
X111684Y69491D01*
X111698Y69476D01*
X111712Y69460D01*
X111724Y69444D01*
X111736Y69427D01*
X111747Y69410D01*
X111756Y69391D01*
X111765Y69373D01*
X111773Y69354D01*
X111780Y69334D01*
X111786Y69314D01*
X111791Y69294D01*
X111794Y69274D01*
X111797Y69254D01*
X111799Y69233D01*
X111799Y69213D01*
X111799Y69192D01*
X111797Y69172D01*
X111794Y69151D01*
X111791Y69131D01*
X111786Y69111D01*
X111780Y69091D01*
X111773Y69072D01*
X111765Y69052D01*
X111756Y69034D01*
X111747Y69016D01*
X111736Y68998D01*
X111724Y68981D01*
X111712Y68965D01*
X111698Y68949D01*
X111684Y68934D01*
X111669Y68920D01*
X111653Y68907D01*
X111637Y68894D01*
X111620Y68882D01*
X111602Y68872D01*
X111584Y68862D01*
X111566Y68853D01*
X111547Y68845D01*
X111527Y68838D01*
X111507Y68832D01*
X111487Y68827D01*
X111467Y68824D01*
X111447Y68821D01*
X111426Y68819D01*
X111406Y68819D01*
X108650D01*
Y69213D01*
Y69606D01*
X111406D01*
X111426Y69606D01*
D02*
G37*
G36*
X127350Y67638D02*
Y67244D01*
X124594D01*
X124574Y67245D01*
X124553Y67246D01*
X124533Y67249D01*
X124513Y67253D01*
X124493Y67257D01*
X124473Y67263D01*
X124453Y67270D01*
X124434Y67278D01*
X124416Y67287D01*
X124398Y67297D01*
X124380Y67308D01*
X124363Y67319D01*
X124347Y67332D01*
X124331Y67345D01*
X124316Y67359D01*
X124302Y67374D01*
X124288Y67390D01*
X124276Y67406D01*
X124264Y67423D01*
X124253Y67441D01*
X124244Y67459D01*
X124235Y67478D01*
X124227Y67497D01*
X124220Y67516D01*
X124214Y67536D01*
X124209Y67556D01*
X124206Y67576D01*
X124203Y67597D01*
X124201Y67617D01*
X124201Y67638D01*
X124201Y67658D01*
X124203Y67679D01*
X124206Y67699D01*
X124209Y67720D01*
X124214Y67740D01*
X124220Y67760D01*
X124227Y67779D01*
X124235Y67798D01*
X124244Y67817D01*
X124253Y67835D01*
X124264Y67852D01*
X124276Y67869D01*
X124288Y67886D01*
X124302Y67901D01*
X124316Y67916D01*
X124331Y67930D01*
X124347Y67944D01*
X124363Y67956D01*
X124380Y67968D01*
X124398Y67979D01*
X124416Y67989D01*
X124434Y67997D01*
X124453Y68005D01*
X124473Y68012D01*
X124493Y68018D01*
X124513Y68023D01*
X124533Y68027D01*
X124553Y68029D01*
X124574Y68031D01*
X124594Y68032D01*
X127350D01*
Y67638D01*
D02*
G37*
G36*
X111426Y68031D02*
X111447Y68029D01*
X111467Y68027D01*
X111487Y68023D01*
X111507Y68018D01*
X111527Y68012D01*
X111547Y68005D01*
X111566Y67997D01*
X111584Y67989D01*
X111602Y67979D01*
X111620Y67968D01*
X111637Y67956D01*
X111653Y67944D01*
X111669Y67930D01*
X111684Y67916D01*
X111698Y67901D01*
X111712Y67886D01*
X111724Y67869D01*
X111736Y67852D01*
X111747Y67835D01*
X111756Y67817D01*
X111765Y67798D01*
X111773Y67779D01*
X111780Y67760D01*
X111786Y67740D01*
X111791Y67720D01*
X111794Y67699D01*
X111797Y67679D01*
X111799Y67658D01*
X111799Y67638D01*
X111799Y67617D01*
X111797Y67597D01*
X111794Y67576D01*
X111791Y67556D01*
X111786Y67536D01*
X111780Y67516D01*
X111773Y67497D01*
X111765Y67478D01*
X111756Y67459D01*
X111747Y67441D01*
X111736Y67423D01*
X111724Y67406D01*
X111712Y67390D01*
X111698Y67374D01*
X111684Y67359D01*
X111669Y67345D01*
X111653Y67332D01*
X111637Y67319D01*
X111620Y67308D01*
X111602Y67297D01*
X111584Y67287D01*
X111566Y67278D01*
X111547Y67270D01*
X111527Y67263D01*
X111507Y67257D01*
X111487Y67253D01*
X111467Y67249D01*
X111447Y67246D01*
X111426Y67245D01*
X111406Y67244D01*
X108650D01*
Y67638D01*
Y68032D01*
X111406D01*
X111426Y68031D01*
D02*
G37*
G36*
X122331Y66457D02*
X118394D01*
Y69606D01*
X122331D01*
Y66457D01*
D02*
G37*
G36*
X117606D02*
X113669D01*
Y69606D01*
X117606D01*
Y66457D01*
D02*
G37*
G36*
X127350Y66063D02*
Y65669D01*
X124594D01*
X124574Y65670D01*
X124553Y65671D01*
X124533Y65674D01*
X124513Y65678D01*
X124493Y65683D01*
X124473Y65689D01*
X124453Y65695D01*
X124434Y65703D01*
X124416Y65712D01*
X124398Y65722D01*
X124380Y65733D01*
X124363Y65745D01*
X124347Y65757D01*
X124331Y65770D01*
X124316Y65785D01*
X124302Y65799D01*
X124288Y65815D01*
X124276Y65832D01*
X124264Y65849D01*
X124253Y65866D01*
X124244Y65884D01*
X124235Y65903D01*
X124227Y65922D01*
X124220Y65941D01*
X124214Y65961D01*
X124209Y65981D01*
X124206Y66001D01*
X124203Y66022D01*
X124201Y66042D01*
X124201Y66063D01*
X124201Y66084D01*
X124203Y66104D01*
X124206Y66125D01*
X124209Y66145D01*
X124214Y66165D01*
X124220Y66185D01*
X124227Y66204D01*
X124235Y66223D01*
X124244Y66242D01*
X124253Y66260D01*
X124264Y66277D01*
X124276Y66294D01*
X124288Y66311D01*
X124302Y66326D01*
X124316Y66341D01*
X124331Y66356D01*
X124347Y66369D01*
X124363Y66382D01*
X124380Y66393D01*
X124398Y66404D01*
X124416Y66414D01*
X124434Y66423D01*
X124453Y66430D01*
X124473Y66437D01*
X124493Y66443D01*
X124513Y66448D01*
X124533Y66452D01*
X124553Y66454D01*
X124574Y66456D01*
X124594Y66457D01*
X127350D01*
Y66063D01*
D02*
G37*
G36*
X111426Y66456D02*
X111447Y66454D01*
X111467Y66452D01*
X111487Y66448D01*
X111507Y66443D01*
X111527Y66437D01*
X111547Y66430D01*
X111566Y66423D01*
X111584Y66414D01*
X111602Y66404D01*
X111620Y66393D01*
X111637Y66382D01*
X111653Y66369D01*
X111669Y66356D01*
X111684Y66341D01*
X111698Y66326D01*
X111712Y66311D01*
X111724Y66294D01*
X111736Y66277D01*
X111747Y66260D01*
X111756Y66242D01*
X111765Y66223D01*
X111773Y66204D01*
X111780Y66185D01*
X111786Y66165D01*
X111791Y66145D01*
X111794Y66125D01*
X111797Y66104D01*
X111799Y66084D01*
X111799Y66063D01*
X111799Y66042D01*
X111797Y66022D01*
X111794Y66001D01*
X111791Y65981D01*
X111786Y65961D01*
X111780Y65941D01*
X111773Y65922D01*
X111765Y65903D01*
X111756Y65884D01*
X111747Y65866D01*
X111736Y65849D01*
X111724Y65832D01*
X111712Y65815D01*
X111698Y65799D01*
X111684Y65785D01*
X111669Y65770D01*
X111653Y65757D01*
X111637Y65745D01*
X111620Y65733D01*
X111602Y65722D01*
X111584Y65712D01*
X111566Y65703D01*
X111547Y65695D01*
X111527Y65689D01*
X111507Y65683D01*
X111487Y65678D01*
X111467Y65674D01*
X111447Y65671D01*
X111426Y65670D01*
X111406Y65669D01*
X108650D01*
Y66063D01*
Y66457D01*
X111406D01*
X111426Y66456D01*
D02*
G37*
G36*
X122823Y63602D02*
X121839D01*
Y65669D01*
X122823D01*
Y63602D01*
D02*
G37*
G36*
X114161D02*
X113177D01*
Y65669D01*
X114161D01*
Y63602D01*
D02*
G37*
D14*
X0Y0D02*
X265500D01*
X0Y385000D02*
X265500D01*
Y0D02*
Y385000D01*
X0Y0D02*
Y385000D01*
D15*
X158417Y208772D02*
D03*
Y206803D02*
D03*
Y204835D02*
D03*
Y202866D02*
D03*
X169441D02*
D03*
Y204835D02*
D03*
Y206803D02*
D03*
Y208772D02*
D03*
D16*
X161961Y201291D02*
D03*
X163929D02*
D03*
X165898D02*
D03*
D17*
X77433Y267669D02*
D03*
Y265701D02*
D03*
Y263732D02*
D03*
Y261764D02*
D03*
X66134D02*
D03*
Y263732D02*
D03*
Y265701D02*
D03*
Y267669D02*
D03*
D18*
X68831Y270366D02*
D03*
X70799D02*
D03*
X72768D02*
D03*
X74736D02*
D03*
Y259067D02*
D03*
X72768D02*
D03*
X70799D02*
D03*
X68831D02*
D03*
D19*
X37000Y51000D02*
D03*
Y47063D02*
D03*
D20*
X27059Y56118D02*
D03*
Y41945D02*
D03*
D21*
X177000Y202496D02*
D03*
Y208504D02*
D03*
X184000Y202496D02*
D03*
Y208504D02*
D03*
X149000Y203496D02*
D03*
Y209504D02*
D03*
D22*
X101260Y266000D02*
D03*
X93740D02*
D03*
D23*
X134768Y59000D02*
D03*
X143232D02*
D03*
D24*
X158850Y236000D02*
D03*
X168150D02*
D03*
M02*
