G04*
G04 #@! TF.GenerationSoftware,Altium Limited,Altium Designer,22.0.2 (36)*
G04*
G04 Layer_Physical_Order=2*
G04 Layer_Color=16711680*
%FSLAX25Y25*%
%MOIN*%
G70*
G04*
G04 #@! TF.SameCoordinates,67E39877-474A-4780-B11E-DC456855A8CC*
G04*
G04*
G04 #@! TF.FilePolarity,Positive*
G04*
G01*
G75*
%ADD14C,0.01000*%
%ADD35R,0.05500X0.05500*%
%ADD36C,0.05500*%
%ADD37C,0.05700*%
%ADD38R,0.05700X0.05700*%
%ADD39R,0.06000X0.06000*%
%ADD40C,0.06000*%
%ADD44C,0.06200*%
%ADD45R,0.06200X0.06200*%
%ADD46R,0.05700X0.05700*%
%ADD47R,0.05500X0.05500*%
%ADD57R,0.25000X0.25000*%
%ADD58C,0.01968*%
%ADD59C,0.01575*%
%ADD60C,0.04953*%
%ADD61C,0.05000*%
%ADD62C,0.04500*%
G36*
X238500Y358000D02*
X261000D01*
Y27000D01*
X238500D01*
Y3500D01*
X27000D01*
Y27000D01*
X3500D01*
Y304500D01*
Y358000D01*
X27000D01*
Y382500D01*
X238500D01*
Y358000D01*
D02*
G37*
%LPC*%
G36*
X195500Y363748D02*
X194553Y363494D01*
X193698Y363001D01*
X193246Y362549D01*
X188754D01*
X188303Y363001D01*
X187448Y363494D01*
X186500Y363748D01*
Y360000D01*
Y356252D01*
X187448Y356506D01*
X188303Y356999D01*
X188754Y357451D01*
X193246D01*
X193698Y356999D01*
X194553Y356506D01*
X195500Y356252D01*
Y360000D01*
Y363748D01*
D02*
G37*
G36*
X185500D02*
X184553Y363494D01*
X183697Y363001D01*
X183246Y362549D01*
X178754D01*
X178303Y363001D01*
X177447Y363494D01*
X176500Y363748D01*
Y360000D01*
Y356252D01*
X177447Y356506D01*
X178303Y356999D01*
X178754Y357451D01*
X183246D01*
X183697Y356999D01*
X184553Y356506D01*
X185500Y356252D01*
Y360000D01*
Y363748D01*
D02*
G37*
G36*
X196500D02*
Y360500D01*
X199748D01*
X199494Y361447D01*
X199001Y362303D01*
X198302Y363001D01*
X197448Y363494D01*
X196500Y363748D01*
D02*
G37*
G36*
X199748Y359500D02*
X196500D01*
Y356252D01*
X197448Y356506D01*
X198302Y356999D01*
X199001Y357697D01*
X199494Y358553D01*
X199748Y359500D01*
D02*
G37*
G36*
X169750Y363750D02*
X166500D01*
Y360000D01*
Y356250D01*
X169750D01*
Y357451D01*
X173246D01*
X173697Y356999D01*
X174553Y356506D01*
X175500Y356252D01*
Y360000D01*
Y363748D01*
X174553Y363494D01*
X173697Y363001D01*
X173246Y362549D01*
X169750D01*
Y363750D01*
D02*
G37*
G36*
X165500D02*
X162250D01*
Y362549D01*
X131500D01*
X130525Y362355D01*
X129698Y361802D01*
X119500Y351605D01*
Y348000D01*
X123105D01*
X132556Y357451D01*
X162250D01*
Y356250D01*
X165500D01*
Y360000D01*
Y363750D01*
D02*
G37*
G36*
X206625Y364750D02*
X205375D01*
X204167Y364426D01*
X203083Y363801D01*
X202199Y362917D01*
X201574Y361833D01*
X201250Y360625D01*
Y359375D01*
X201574Y358167D01*
X202199Y357083D01*
X203083Y356199D01*
X204167Y355574D01*
X205375Y355250D01*
X206625D01*
X207833Y355574D01*
X208917Y356199D01*
X209801Y357083D01*
X210426Y358167D01*
X210750Y359375D01*
Y360625D01*
X210426Y361833D01*
X209801Y362917D01*
X208917Y363801D01*
X207833Y364426D01*
X206625Y364750D01*
D02*
G37*
G36*
X118500Y351600D02*
X114900D01*
Y348000D01*
X118500D01*
Y351600D01*
D02*
G37*
G36*
X42871Y352600D02*
X41529D01*
X40231Y352252D01*
X39068Y351581D01*
X38119Y350631D01*
X37448Y349468D01*
X37100Y348171D01*
Y346829D01*
X37448Y345532D01*
X38119Y344369D01*
X39068Y343419D01*
X40231Y342748D01*
X41529Y342400D01*
X42871D01*
X44168Y342748D01*
X45331Y343419D01*
X46281Y344369D01*
X46952Y345532D01*
X47300Y346829D01*
Y348171D01*
X46952Y349468D01*
X46281Y350631D01*
X45331Y351581D01*
X44168Y352252D01*
X42871Y352600D01*
D02*
G37*
G36*
X31250Y337750D02*
X28000D01*
Y334500D01*
X31250D01*
Y337750D01*
D02*
G37*
G36*
X27000D02*
X23750D01*
Y334500D01*
X27000D01*
Y337750D01*
D02*
G37*
G36*
X31250Y333500D02*
X28000D01*
Y330250D01*
X31250D01*
Y333500D01*
D02*
G37*
G36*
X27000D02*
X23750D01*
Y330250D01*
X27000D01*
Y333500D01*
D02*
G37*
G36*
X94500Y328750D02*
X91250D01*
Y325500D01*
X94500D01*
Y328750D01*
D02*
G37*
G36*
Y324500D02*
X91250D01*
Y321250D01*
X94500D01*
Y324500D01*
D02*
G37*
G36*
X50125Y329750D02*
X48875D01*
X47667Y329426D01*
X46583Y328801D01*
X45699Y327917D01*
X45074Y326833D01*
X44750Y325625D01*
Y324375D01*
X45074Y323167D01*
X45699Y322083D01*
X46583Y321199D01*
X47667Y320574D01*
X48875Y320250D01*
X50125D01*
X51333Y320574D01*
X52417Y321199D01*
X53301Y322083D01*
X53926Y323167D01*
X54250Y324375D01*
Y325625D01*
X53926Y326833D01*
X53301Y327917D01*
X52417Y328801D01*
X51333Y329426D01*
X50125Y329750D01*
D02*
G37*
G36*
X182092Y321000D02*
X180908D01*
X179763Y320693D01*
X178737Y320101D01*
X177899Y319263D01*
X177307Y318237D01*
X177000Y317092D01*
Y315908D01*
X177307Y314763D01*
X177899Y313737D01*
X178737Y312899D01*
X179763Y312307D01*
X180908Y312000D01*
X182092D01*
X183237Y312307D01*
X184263Y312899D01*
X185101Y313737D01*
X185693Y314763D01*
X186000Y315908D01*
Y317092D01*
X185693Y318237D01*
X185101Y319263D01*
X184263Y320101D01*
X183237Y320693D01*
X182092Y321000D01*
D02*
G37*
G36*
X123105Y347000D02*
X119000D01*
X114900D01*
Y343400D01*
X116451D01*
Y330556D01*
X113444Y327549D01*
X98750D01*
Y328750D01*
X95500D01*
Y325000D01*
Y321250D01*
X98750D01*
Y322451D01*
X114500D01*
X115475Y322645D01*
X116302Y323198D01*
X120802Y327698D01*
X121355Y328524D01*
X121549Y329500D01*
Y340693D01*
X122011Y340884D01*
X122951Y339944D01*
Y312350D01*
X121650D01*
Y309000D01*
X125500D01*
X129350D01*
Y312350D01*
X128049D01*
Y341000D01*
X127855Y341975D01*
X127302Y342802D01*
X123105Y347000D01*
D02*
G37*
G36*
X129350Y308000D02*
X126000D01*
Y304650D01*
X129350D01*
Y308000D01*
D02*
G37*
G36*
X125000D02*
X121650D01*
Y304650D01*
X125000D01*
Y308000D01*
D02*
G37*
G36*
X62138Y313350D02*
X60861D01*
X59628Y313019D01*
X58522Y312381D01*
X57619Y311478D01*
X56981Y310372D01*
X56650Y309138D01*
Y307861D01*
X56981Y306628D01*
X57619Y305522D01*
X58522Y304619D01*
X59628Y303980D01*
X60861Y303650D01*
X62138D01*
X63372Y303980D01*
X64478Y304619D01*
X65381Y305522D01*
X66019Y306628D01*
X66350Y307861D01*
Y309138D01*
X66019Y310372D01*
X65381Y311478D01*
X64478Y312381D01*
X63372Y313019D01*
X62138Y313350D01*
D02*
G37*
G36*
X28125Y293250D02*
X26875D01*
X25667Y292926D01*
X24583Y292301D01*
X23699Y291417D01*
X23074Y290333D01*
X22750Y289125D01*
Y287875D01*
X23074Y286667D01*
X23699Y285583D01*
X24583Y284699D01*
X25667Y284074D01*
X26875Y283750D01*
X28125D01*
X29333Y284074D01*
X30417Y284699D01*
X31301Y285583D01*
X31926Y286667D01*
X32250Y287875D01*
Y289125D01*
X31926Y290333D01*
X31301Y291417D01*
X30417Y292301D01*
X29333Y292926D01*
X28125Y293250D01*
D02*
G37*
G36*
X105685Y282965D02*
Y280000D01*
X108650D01*
X108424Y280842D01*
X107967Y281634D01*
X107320Y282282D01*
X106527Y282739D01*
X105685Y282965D01*
D02*
G37*
G36*
X104685D02*
X103843Y282739D01*
X103050Y282282D01*
X102403Y281634D01*
X101946Y280842D01*
X101720Y280000D01*
X104685D01*
Y282965D01*
D02*
G37*
G36*
X108650Y279000D02*
X105185D01*
X101720D01*
X101946Y278158D01*
X102403Y277365D01*
X103050Y276718D01*
X103843Y276260D01*
X103992Y276221D01*
X104210Y276075D01*
X105185Y275881D01*
X106160Y276075D01*
X106378Y276221D01*
X106527Y276260D01*
X107320Y276718D01*
X107967Y277365D01*
X108424Y278158D01*
X108650Y279000D01*
D02*
G37*
G36*
X86089Y283976D02*
X84911D01*
X83772Y283671D01*
X82751Y283082D01*
X81918Y282249D01*
X81329Y281228D01*
X81024Y280089D01*
Y278911D01*
X81329Y277772D01*
X81918Y276751D01*
X82751Y275918D01*
X83772Y275329D01*
X84911Y275024D01*
X86089D01*
X87228Y275329D01*
X88249Y275918D01*
X89082Y276751D01*
X89671Y277772D01*
X89976Y278911D01*
Y280089D01*
X89671Y281228D01*
X89082Y282249D01*
X88249Y283082D01*
X87228Y283671D01*
X86089Y283976D01*
D02*
G37*
G36*
X33158Y276465D02*
Y273500D01*
X36123D01*
X35897Y274342D01*
X35820Y274476D01*
X35769Y274732D01*
X35216Y275559D01*
X34389Y276111D01*
X34133Y276162D01*
X33999Y276239D01*
X33158Y276465D01*
D02*
G37*
G36*
X32157D02*
X31316Y276239D01*
X30523Y275782D01*
X29876Y275134D01*
X29418Y274342D01*
X29192Y273500D01*
X32157D01*
Y276465D01*
D02*
G37*
G36*
X36123Y272500D02*
X33158D01*
Y269535D01*
X33999Y269760D01*
X34792Y270218D01*
X35439Y270866D01*
X35897Y271658D01*
X36123Y272500D01*
D02*
G37*
G36*
X32157D02*
X29192D01*
X29418Y271658D01*
X29876Y270866D01*
X30523Y270218D01*
X31316Y269760D01*
X32157Y269535D01*
Y272500D01*
D02*
G37*
G36*
X52932Y277476D02*
X51753D01*
X50615Y277171D01*
X49594Y276582D01*
X48761Y275749D01*
X48171Y274728D01*
X47866Y273589D01*
Y272411D01*
X48171Y271272D01*
X48761Y270251D01*
X49594Y269418D01*
X50615Y268829D01*
X51753Y268524D01*
X52932D01*
X54070Y268829D01*
X55091Y269418D01*
X55924Y270251D01*
X56514Y271272D01*
X56819Y272411D01*
Y273589D01*
X56514Y274728D01*
X55924Y275749D01*
X55091Y276582D01*
X54070Y277171D01*
X52932Y277476D01*
D02*
G37*
G36*
X74567Y268728D02*
Y267500D01*
X75795D01*
X75582Y268012D01*
X75079Y268515D01*
X74567Y268728D01*
D02*
G37*
G36*
X69000D02*
X68488Y268515D01*
X67985Y268012D01*
X67772Y267500D01*
X69000D01*
Y268728D01*
D02*
G37*
G36*
X73567D02*
X73054Y268515D01*
X72552Y268012D01*
X72280Y267355D01*
Y266966D01*
X72219Y266765D01*
X71784Y266570D01*
X71348Y266765D01*
X71287Y266966D01*
Y267355D01*
X71015Y268012D01*
X70512Y268515D01*
X70000Y268728D01*
Y267000D01*
X69500D01*
Y266500D01*
X67772D01*
X67985Y265987D01*
X68488Y265485D01*
X69144Y265213D01*
X69534D01*
X69735Y265152D01*
X69930Y264717D01*
X69735Y264282D01*
X69534Y264220D01*
X69144D01*
X68488Y263948D01*
X67985Y263446D01*
X67772Y262933D01*
X69500D01*
Y262433D01*
X70000D01*
Y260705D01*
X70512Y260918D01*
X71015Y261421D01*
X71287Y262077D01*
Y262467D01*
X71340Y262639D01*
X71855Y262869D01*
X72195Y262744D01*
X72280Y262467D01*
Y262077D01*
X72552Y261421D01*
X73054Y260918D01*
X73567Y260705D01*
Y262433D01*
X74067D01*
Y262933D01*
X75795D01*
X75582Y263446D01*
X75079Y263948D01*
X74423Y264220D01*
X74033D01*
X73832Y264282D01*
X73637Y264717D01*
X73832Y265152D01*
X74033Y265213D01*
X74423D01*
X75079Y265485D01*
X75582Y265987D01*
X75795Y266500D01*
X74067D01*
Y267000D01*
X73567D01*
Y268728D01*
D02*
G37*
G36*
X114800Y269117D02*
Y266128D01*
X117790D01*
X117562Y266979D01*
X117101Y267777D01*
X116449Y268429D01*
X115651Y268889D01*
X114800Y269117D01*
D02*
G37*
G36*
X113800D02*
X112949Y268889D01*
X112151Y268429D01*
X111500Y267777D01*
X111039Y266979D01*
X110811Y266128D01*
X113800D01*
Y269117D01*
D02*
G37*
G36*
X117790Y265128D02*
X114800D01*
Y262138D01*
X115651Y262366D01*
X116449Y262827D01*
X117101Y263479D01*
X117562Y264277D01*
X117790Y265128D01*
D02*
G37*
G36*
X113800D02*
X110811D01*
X111039Y264277D01*
X111500Y263479D01*
X112151Y262827D01*
X112949Y262366D01*
X113800Y262138D01*
Y265128D01*
D02*
G37*
G36*
X75795Y261933D02*
X74567D01*
Y260705D01*
X75079Y260918D01*
X75582Y261421D01*
X75795Y261933D01*
D02*
G37*
G36*
X69000D02*
X67772D01*
X67985Y261421D01*
X68488Y260918D01*
X69000Y260705D01*
Y261933D01*
D02*
G37*
G36*
X78000Y257990D02*
Y255000D01*
X80989D01*
X80761Y255851D01*
X80301Y256649D01*
X79649Y257301D01*
X78851Y257762D01*
X78000Y257990D01*
D02*
G37*
G36*
X77000D02*
X76149Y257762D01*
X75351Y257301D01*
X74699Y256649D01*
X74239Y255851D01*
X74010Y255000D01*
X77000D01*
Y257990D01*
D02*
G37*
G36*
X58500Y257489D02*
Y254500D01*
X61489D01*
X61261Y255351D01*
X60801Y256149D01*
X60149Y256801D01*
X59351Y257261D01*
X58500Y257489D01*
D02*
G37*
G36*
X57500D02*
X56649Y257261D01*
X55851Y256801D01*
X55199Y256149D01*
X54738Y255351D01*
X54510Y254500D01*
X57500D01*
Y257489D01*
D02*
G37*
G36*
X80989Y254000D02*
X78000D01*
Y251010D01*
X78851Y251238D01*
X79649Y251699D01*
X80301Y252351D01*
X80761Y253149D01*
X80989Y254000D01*
D02*
G37*
G36*
X77000D02*
X74010D01*
X74239Y253149D01*
X74699Y252351D01*
X75351Y251699D01*
X76149Y251238D01*
X77000Y251010D01*
Y254000D01*
D02*
G37*
G36*
X61489Y253500D02*
X58500D01*
Y250511D01*
X59351Y250739D01*
X60149Y251199D01*
X60801Y251851D01*
X61261Y252649D01*
X61489Y253500D01*
D02*
G37*
G36*
X57500D02*
X54510D01*
X54738Y252649D01*
X55199Y251851D01*
X55851Y251199D01*
X56649Y250739D01*
X57500Y250511D01*
Y253500D01*
D02*
G37*
G36*
X107658Y249500D02*
X106342D01*
X105070Y249159D01*
X103930Y248501D01*
X102999Y247570D01*
X102341Y246430D01*
X102000Y245158D01*
Y243842D01*
X102341Y242570D01*
X102999Y241430D01*
X103930Y240499D01*
X105070Y239841D01*
X106342Y239500D01*
X107658D01*
X108930Y239841D01*
X110070Y240499D01*
X111001Y241430D01*
X111659Y242570D01*
X112000Y243842D01*
Y245158D01*
X111659Y246430D01*
X111001Y247570D01*
X110070Y248501D01*
X108930Y249159D01*
X107658Y249500D01*
D02*
G37*
G36*
X73625Y243750D02*
X72375D01*
X71167Y243426D01*
X70083Y242801D01*
X69199Y241917D01*
X68574Y240833D01*
X68250Y239625D01*
Y238375D01*
X68574Y237167D01*
X69199Y236083D01*
X70083Y235199D01*
X71167Y234574D01*
X72375Y234250D01*
X73625D01*
X74833Y234574D01*
X75917Y235199D01*
X76801Y236083D01*
X77426Y237167D01*
X77750Y238375D01*
Y239625D01*
X77426Y240833D01*
X76801Y241917D01*
X75917Y242801D01*
X74833Y243426D01*
X73625Y243750D01*
D02*
G37*
G36*
X94125Y241250D02*
X92875D01*
X91667Y240926D01*
X90583Y240301D01*
X89699Y239417D01*
X89074Y238333D01*
X88750Y237125D01*
Y235875D01*
X89074Y234667D01*
X89699Y233583D01*
X90583Y232699D01*
X91667Y232074D01*
X92875Y231750D01*
X94125D01*
X95333Y232074D01*
X96417Y232699D01*
X97301Y233583D01*
X97926Y234667D01*
X98250Y235875D01*
Y237125D01*
X97926Y238333D01*
X97301Y239417D01*
X96417Y240301D01*
X95333Y240926D01*
X94125Y241250D01*
D02*
G37*
G36*
X164646Y227095D02*
Y224364D01*
X167376D01*
X167174Y225118D01*
X166746Y225860D01*
X166141Y226465D01*
X165400Y226892D01*
X164646Y227095D01*
D02*
G37*
G36*
X163646D02*
X162891Y226892D01*
X162150Y226465D01*
X161545Y225860D01*
X161117Y225118D01*
X160915Y224364D01*
X163646D01*
Y227095D01*
D02*
G37*
G36*
X227125Y233750D02*
X225875D01*
X224667Y233426D01*
X223583Y232801D01*
X222699Y231917D01*
X222074Y230833D01*
X221750Y229625D01*
Y228375D01*
X222074Y227167D01*
X222699Y226083D01*
X223583Y225199D01*
X224667Y224574D01*
X225875Y224250D01*
X227125D01*
X228333Y224574D01*
X229417Y225199D01*
X230301Y226083D01*
X230926Y227167D01*
X231250Y228375D01*
Y229625D01*
X230926Y230833D01*
X230301Y231917D01*
X229417Y232801D01*
X228333Y233426D01*
X227125Y233750D01*
D02*
G37*
G36*
X185750D02*
X176250D01*
Y224250D01*
X185750D01*
Y233750D01*
D02*
G37*
G36*
X73625D02*
X72375D01*
X71167Y233426D01*
X70083Y232801D01*
X69199Y231917D01*
X68574Y230833D01*
X68250Y229625D01*
Y228375D01*
X68574Y227167D01*
X69199Y226083D01*
X70083Y225199D01*
X71167Y224574D01*
X72375Y224250D01*
X73625D01*
X74833Y224574D01*
X75917Y225199D01*
X76801Y226083D01*
X77426Y227167D01*
X77750Y228375D01*
Y229625D01*
X77426Y230833D01*
X76801Y231917D01*
X75917Y232801D01*
X74833Y233426D01*
X73625Y233750D01*
D02*
G37*
G36*
X94125Y231250D02*
X92875D01*
X91667Y230926D01*
X90583Y230301D01*
X89699Y229417D01*
X89074Y228333D01*
X88750Y227125D01*
Y225875D01*
X89074Y224667D01*
X89699Y223583D01*
X90583Y222699D01*
X91667Y222074D01*
X92875Y221750D01*
X94125D01*
X95333Y222074D01*
X96417Y222699D01*
X97301Y223583D01*
X97926Y224667D01*
X98250Y225875D01*
Y227125D01*
X97926Y228333D01*
X97301Y229417D01*
X96417Y230301D01*
X95333Y230926D01*
X94125Y231250D01*
D02*
G37*
G36*
X167376Y223364D02*
X164646D01*
Y220633D01*
X165400Y220835D01*
X166141Y221263D01*
X166746Y221868D01*
X167174Y222610D01*
X167376Y223364D01*
D02*
G37*
G36*
X163646D02*
X160915D01*
X161117Y222610D01*
X161545Y221868D01*
X162150Y221263D01*
X162891Y220835D01*
X163646Y220633D01*
Y223364D01*
D02*
G37*
G36*
X73638Y219850D02*
X72361D01*
X71128Y219519D01*
X70022Y218881D01*
X69119Y217978D01*
X68480Y216872D01*
X68150Y215638D01*
Y214362D01*
X68480Y213128D01*
X69119Y212022D01*
X70022Y211119D01*
X71128Y210480D01*
X72361Y210150D01*
X73638D01*
X74872Y210480D01*
X75978Y211119D01*
X76881Y212022D01*
X77520Y213128D01*
X77850Y214362D01*
Y215638D01*
X77520Y216872D01*
X76881Y217978D01*
X75978Y218881D01*
X74872Y219519D01*
X73638Y219850D01*
D02*
G37*
G36*
X190592Y218500D02*
X189408D01*
X188263Y218193D01*
X187237Y217601D01*
X186399Y216763D01*
X185807Y215737D01*
X185500Y214592D01*
Y213408D01*
X185807Y212263D01*
X186399Y211237D01*
X187237Y210399D01*
X188263Y209807D01*
X189408Y209500D01*
X190592D01*
X191737Y209807D01*
X192763Y210399D01*
X193601Y211237D01*
X194193Y212263D01*
X194500Y213408D01*
Y214592D01*
X194193Y215737D01*
X193601Y216763D01*
X192763Y217601D01*
X191737Y218193D01*
X190592Y218500D01*
D02*
G37*
G36*
X97850Y218850D02*
X88150D01*
Y209150D01*
X97850D01*
Y218850D01*
D02*
G37*
G36*
X211000Y216000D02*
X201000D01*
Y206000D01*
X211000D01*
Y216000D01*
D02*
G37*
G36*
X206527Y205000D02*
X206500D01*
Y201500D01*
X210000D01*
Y201527D01*
X209727Y202544D01*
X209201Y203456D01*
X208456Y204201D01*
X207544Y204727D01*
X206527Y205000D01*
D02*
G37*
G36*
X205500D02*
X205473D01*
X204456Y204727D01*
X203544Y204201D01*
X202799Y203456D01*
X202273Y202544D01*
X202000Y201527D01*
Y201500D01*
X205500D01*
Y205000D01*
D02*
G37*
G36*
X192441Y200363D02*
Y197374D01*
X195430D01*
X195202Y198225D01*
X194741Y199023D01*
X194090Y199675D01*
X193292Y200135D01*
X192441Y200363D01*
D02*
G37*
G36*
X191441D02*
X190590Y200135D01*
X189792Y199675D01*
X189140Y199023D01*
X188679Y198225D01*
X188451Y197374D01*
X191441D01*
Y200363D01*
D02*
G37*
G36*
X210000Y200500D02*
X206500D01*
Y197000D01*
X206527D01*
X207544Y197273D01*
X208456Y197799D01*
X209201Y198544D01*
X209727Y199456D01*
X210000Y200473D01*
Y200500D01*
D02*
G37*
G36*
X205500D02*
X202000D01*
Y200473D01*
X202273Y199456D01*
X202799Y198544D01*
X203544Y197799D01*
X204456Y197273D01*
X205473Y197000D01*
X205500D01*
Y200500D01*
D02*
G37*
G36*
X149383Y196385D02*
Y193395D01*
X152373D01*
X152145Y194246D01*
X151684Y195044D01*
X151032Y195696D01*
X150234Y196157D01*
X149383Y196385D01*
D02*
G37*
G36*
X148383D02*
X147532Y196157D01*
X146734Y195696D01*
X146083Y195044D01*
X145622Y194246D01*
X145394Y193395D01*
X148383D01*
Y196385D01*
D02*
G37*
G36*
X195430Y196374D02*
X192441D01*
Y193385D01*
X193292Y193613D01*
X194090Y194073D01*
X194741Y194725D01*
X195202Y195523D01*
X195430Y196374D01*
D02*
G37*
G36*
X191441D02*
X188451D01*
X188679Y195523D01*
X189140Y194725D01*
X189792Y194073D01*
X190590Y193613D01*
X191441Y193385D01*
Y196374D01*
D02*
G37*
G36*
X164275Y193526D02*
Y190536D01*
X167264D01*
X167036Y191387D01*
X166576Y192185D01*
X165924Y192837D01*
X165126Y193298D01*
X164275Y193526D01*
D02*
G37*
G36*
X163275D02*
X162424Y193298D01*
X161626Y192837D01*
X160974Y192185D01*
X160513Y191387D01*
X160285Y190536D01*
X163275D01*
Y193526D01*
D02*
G37*
G36*
X152373Y192395D02*
X149383D01*
Y189406D01*
X150234Y189634D01*
X151032Y190094D01*
X151684Y190746D01*
X152145Y191544D01*
X152373Y192395D01*
D02*
G37*
G36*
X148383D02*
X145394D01*
X145622Y191544D01*
X146083Y190746D01*
X146734Y190094D01*
X147532Y189634D01*
X148383Y189406D01*
Y192395D01*
D02*
G37*
G36*
X167264Y189536D02*
X164275D01*
Y186547D01*
X165126Y186775D01*
X165924Y187235D01*
X166576Y187887D01*
X167036Y188685D01*
X167264Y189536D01*
D02*
G37*
G36*
X163275D02*
X160285D01*
X160513Y188685D01*
X160974Y187887D01*
X161626Y187235D01*
X162424Y186775D01*
X163275Y186547D01*
Y189536D01*
D02*
G37*
G36*
X174000Y182748D02*
Y179500D01*
X177248D01*
X176994Y180447D01*
X176501Y181302D01*
X175803Y182001D01*
X174948Y182494D01*
X174000Y182748D01*
D02*
G37*
G36*
X173000D02*
X172053Y182494D01*
X171197Y182001D01*
X170499Y181302D01*
X170006Y180447D01*
X169752Y179500D01*
X173000D01*
Y182748D01*
D02*
G37*
G36*
X177248Y178500D02*
X174000D01*
Y175252D01*
X174948Y175506D01*
X175803Y175999D01*
X176501Y176698D01*
X176994Y177552D01*
X177248Y178500D01*
D02*
G37*
G36*
X173000D02*
X169752D01*
X170006Y177552D01*
X170499Y176698D01*
X171197Y175999D01*
X172053Y175506D01*
X173000Y175252D01*
Y178500D01*
D02*
G37*
G36*
X223750Y183750D02*
X214250D01*
Y174250D01*
X223750D01*
Y183750D01*
D02*
G37*
G36*
X77850Y168850D02*
X68150D01*
Y159150D01*
X77850D01*
Y168850D01*
D02*
G37*
G36*
X93638Y167850D02*
X92361D01*
X91128Y167519D01*
X90022Y166881D01*
X89119Y165978D01*
X88481Y164872D01*
X88150Y163638D01*
Y162362D01*
X88481Y161128D01*
X89119Y160022D01*
X90022Y159119D01*
X91128Y158481D01*
X92361Y158150D01*
X93638D01*
X94872Y158481D01*
X95978Y159119D01*
X96881Y160022D01*
X97519Y161128D01*
X97850Y162362D01*
Y163638D01*
X97519Y164872D01*
X96881Y165978D01*
X95978Y166881D01*
X94872Y167519D01*
X93638Y167850D01*
D02*
G37*
G36*
X107250Y131750D02*
X97750D01*
Y122250D01*
X107250D01*
Y131750D01*
D02*
G37*
G36*
X57625D02*
X56375D01*
X55167Y131426D01*
X54083Y130801D01*
X53199Y129917D01*
X52574Y128833D01*
X52250Y127625D01*
Y126375D01*
X52574Y125167D01*
X53199Y124083D01*
X54083Y123199D01*
X55167Y122574D01*
X56375Y122250D01*
X57625D01*
X58833Y122574D01*
X59917Y123199D01*
X60801Y124083D01*
X61426Y125167D01*
X61750Y126375D01*
Y127625D01*
X61426Y128833D01*
X60801Y129917D01*
X59917Y130801D01*
X58833Y131426D01*
X57625Y131750D01*
D02*
G37*
G36*
X143658Y138000D02*
X142342D01*
X141070Y137659D01*
X139930Y137001D01*
X138999Y136070D01*
X138341Y134930D01*
X138000Y133658D01*
Y132342D01*
X138341Y131070D01*
X138999Y129930D01*
X139930Y128999D01*
X140794Y128500D01*
X140660Y128000D01*
X138000D01*
Y118000D01*
X148000D01*
Y128000D01*
X145340D01*
X145206Y128500D01*
X146070Y128999D01*
X147001Y129930D01*
X147659Y131070D01*
X148000Y132342D01*
Y133658D01*
X147659Y134930D01*
X147001Y136070D01*
X146070Y137001D01*
X144930Y137659D01*
X143658Y138000D01*
D02*
G37*
G36*
X101125Y109750D02*
X99875D01*
X98667Y109426D01*
X97583Y108801D01*
X96699Y107917D01*
X96074Y106833D01*
X95750Y105625D01*
Y104375D01*
X96074Y103167D01*
X96699Y102083D01*
X97583Y101199D01*
X98667Y100574D01*
X99875Y100250D01*
X101125D01*
X102333Y100574D01*
X103417Y101199D01*
X104301Y102083D01*
X104926Y103167D01*
X105250Y104375D01*
Y105625D01*
X104926Y106833D01*
X104301Y107917D01*
X103417Y108801D01*
X102333Y109426D01*
X101125Y109750D01*
D02*
G37*
G36*
X59750D02*
X50250D01*
Y100250D01*
X59750D01*
Y109750D01*
D02*
G37*
G36*
X184000Y101248D02*
Y98000D01*
X187248D01*
X186994Y98948D01*
X186501Y99803D01*
X185802Y100501D01*
X184948Y100994D01*
X184000Y101248D01*
D02*
G37*
G36*
X183000D02*
X182053Y100994D01*
X181198Y100501D01*
X180499Y99803D01*
X180006Y98948D01*
X179752Y98000D01*
X183000D01*
Y101248D01*
D02*
G37*
G36*
X92000Y96731D02*
Y94000D01*
X94731D01*
X94529Y94754D01*
X94101Y95495D01*
X93496Y96101D01*
X92754Y96529D01*
X92000Y96731D01*
D02*
G37*
G36*
X91000D02*
X90246Y96529D01*
X89504Y96101D01*
X88899Y95495D01*
X88472Y94754D01*
X88269Y94000D01*
X91000D01*
Y96731D01*
D02*
G37*
G36*
X183000Y97000D02*
X179752D01*
X180006Y96052D01*
X180499Y95197D01*
X181198Y94499D01*
X182053Y94006D01*
X183000Y93752D01*
Y97000D01*
D02*
G37*
G36*
X142750Y102250D02*
X133250D01*
Y92750D01*
X142750D01*
Y102250D01*
D02*
G37*
G36*
X94731Y93000D02*
X92000D01*
Y90269D01*
X92754Y90472D01*
X93496Y90899D01*
X94101Y91505D01*
X94529Y92246D01*
X94731Y93000D01*
D02*
G37*
G36*
X91000D02*
X88269D01*
X88472Y92246D01*
X88899Y91505D01*
X89504Y90899D01*
X90246Y90472D01*
X91000Y90269D01*
Y93000D01*
D02*
G37*
G36*
X85932Y88476D02*
X84753D01*
X83615Y88171D01*
X82594Y87582D01*
X81761Y86749D01*
X81171Y85728D01*
X80866Y84589D01*
Y83411D01*
X81171Y82272D01*
X81761Y81251D01*
X82594Y80418D01*
X83615Y79829D01*
X84753Y79524D01*
X85932D01*
X87070Y79829D01*
X88091Y80418D01*
X88924Y81251D01*
X89514Y82272D01*
X89819Y83411D01*
Y84589D01*
X89514Y85728D01*
X88924Y86749D01*
X88091Y87582D01*
X87070Y88171D01*
X85932Y88476D01*
D02*
G37*
G36*
X66247D02*
X65068D01*
X63930Y88171D01*
X62909Y87582D01*
X62076Y86749D01*
X61486Y85728D01*
X61181Y84589D01*
Y83411D01*
X61486Y82272D01*
X62076Y81251D01*
X62909Y80418D01*
X63930Y79829D01*
X65068Y79524D01*
X66247D01*
X67385Y79829D01*
X68406Y80418D01*
X69239Y81251D01*
X69829Y82272D01*
X70134Y83411D01*
Y84589D01*
X69829Y85728D01*
X69239Y86749D01*
X68406Y87582D01*
X67385Y88171D01*
X66247Y88476D01*
D02*
G37*
G36*
X187605Y97000D02*
X184000D01*
Y93395D01*
X191451Y85944D01*
Y76254D01*
X190999Y75802D01*
X190506Y74948D01*
X190252Y74000D01*
X194000D01*
X197748D01*
X197494Y74948D01*
X197001Y75802D01*
X196549Y76254D01*
Y87000D01*
X196355Y87976D01*
X195802Y88802D01*
X187605Y97000D01*
D02*
G37*
G36*
X121043Y73909D02*
X120419Y73651D01*
X120098Y73330D01*
X119772Y73144D01*
X119445Y73330D01*
X119124Y73651D01*
X118500Y73909D01*
Y71969D01*
X117500D01*
Y73909D01*
X116876Y73651D01*
X116555Y73330D01*
X116228Y73144D01*
X115902Y73330D01*
X115581Y73651D01*
X114957Y73909D01*
Y71969D01*
X114457D01*
Y71469D01*
X112516D01*
X112775Y70845D01*
X113333Y70286D01*
X113420Y70250D01*
Y69750D01*
X113333Y69714D01*
X112775Y69156D01*
X112516Y68532D01*
X114457D01*
Y68032D01*
X114957D01*
Y66091D01*
X115581Y66349D01*
X115902Y66670D01*
X116228Y66856D01*
X116555Y66670D01*
X116876Y66349D01*
X117500Y66091D01*
Y68032D01*
X118500D01*
Y66091D01*
X119124Y66349D01*
X119445Y66670D01*
X119772Y66856D01*
X120098Y66670D01*
X120419Y66349D01*
X121043Y66091D01*
Y68032D01*
X121543D01*
Y68532D01*
X123484D01*
X123225Y69156D01*
X122667Y69714D01*
X122580Y69750D01*
Y70250D01*
X122667Y70286D01*
X123225Y70845D01*
X123484Y71469D01*
X121543D01*
Y71969D01*
X121043D01*
Y73909D01*
D02*
G37*
G36*
X122043D02*
Y72469D01*
X123484D01*
X123225Y73093D01*
X122667Y73651D01*
X122043Y73909D01*
D02*
G37*
G36*
X113957D02*
X113333Y73651D01*
X112775Y73093D01*
X112516Y72469D01*
X113957D01*
Y73909D01*
D02*
G37*
G36*
X197748Y73000D02*
X194500D01*
Y69752D01*
X195448Y70006D01*
X196302Y70499D01*
X197001Y71197D01*
X197494Y72053D01*
X197748Y73000D01*
D02*
G37*
G36*
X193500D02*
X190252D01*
X190506Y72053D01*
X190999Y71197D01*
X191698Y70499D01*
X192552Y70006D01*
X193500Y69752D01*
Y73000D01*
D02*
G37*
G36*
X139592Y82086D02*
X138408D01*
X137263Y81779D01*
X136237Y81187D01*
X135399Y80349D01*
X134807Y79323D01*
X134500Y78178D01*
Y76993D01*
X134807Y75849D01*
X135399Y74823D01*
X136237Y73985D01*
X137263Y73392D01*
X138408Y73086D01*
X139592D01*
X140737Y73392D01*
X141763Y73985D01*
X142601Y74823D01*
X143193Y75849D01*
X143250Y76060D01*
X143750Y75994D01*
Y68750D01*
X153250D01*
Y78250D01*
X143975D01*
X143750Y78250D01*
X143390Y78588D01*
X143193Y79323D01*
X142601Y80349D01*
X141763Y81187D01*
X140737Y81779D01*
X139592Y82086D01*
D02*
G37*
G36*
X123484Y67532D02*
X122043D01*
Y66091D01*
X122667Y66349D01*
X123225Y66908D01*
X123484Y67532D01*
D02*
G37*
G36*
X113957D02*
X112516D01*
X112775Y66908D01*
X113333Y66349D01*
X113957Y66091D01*
Y67532D01*
D02*
G37*
G36*
X69089Y69976D02*
X67911D01*
X66772Y69671D01*
X65751Y69082D01*
X64918Y68249D01*
X64329Y67228D01*
X64024Y66089D01*
Y64911D01*
X64329Y63772D01*
X64918Y62751D01*
X65751Y61918D01*
X66772Y61329D01*
X67911Y61024D01*
X69089D01*
X70228Y61329D01*
X71249Y61918D01*
X72082Y62751D01*
X72671Y63772D01*
X72976Y64911D01*
Y66089D01*
X72671Y67228D01*
X72082Y68249D01*
X71249Y69082D01*
X70228Y69671D01*
X69089Y69976D01*
D02*
G37*
G36*
X48658Y65000D02*
X47342D01*
X46070Y64659D01*
X44930Y64001D01*
X43999Y63070D01*
X43341Y61930D01*
X43000Y60658D01*
Y59342D01*
X43341Y58070D01*
X43999Y56930D01*
X44930Y55999D01*
X46070Y55341D01*
X47342Y55000D01*
X48658D01*
X49930Y55341D01*
X51070Y55999D01*
X52001Y56930D01*
X52659Y58070D01*
X53000Y59342D01*
Y60658D01*
X52659Y61930D01*
X52001Y63070D01*
X51070Y64001D01*
X49930Y64659D01*
X48658Y65000D01*
D02*
G37*
G36*
X69000Y49280D02*
Y46315D01*
X71965D01*
X71740Y47157D01*
X71282Y47949D01*
X70635Y48597D01*
X69842Y49054D01*
X69000Y49280D01*
D02*
G37*
G36*
X68000D02*
X67158Y49054D01*
X66365Y48597D01*
X65718Y47949D01*
X65260Y47157D01*
X65035Y46315D01*
X68000D01*
Y49280D01*
D02*
G37*
G36*
X71965Y45315D02*
X69000D01*
Y42350D01*
X69842Y42575D01*
X70635Y43033D01*
X71282Y43680D01*
X71740Y44473D01*
X71965Y45315D01*
D02*
G37*
G36*
X68000D02*
X65035D01*
X65260Y44473D01*
X65718Y43680D01*
X66365Y43033D01*
X67158Y42575D01*
X68000Y42350D01*
Y45315D01*
D02*
G37*
%LPD*%
D14*
X105185Y278430D02*
Y279500D01*
X183500Y97500D02*
X194000Y87000D01*
Y73500D02*
Y87000D01*
X32658Y273000D02*
X33414Y273756D01*
X125500Y308500D02*
Y341000D01*
X119000Y347500D02*
X125500Y341000D01*
X95000Y325000D02*
X114500D01*
X119000Y329500D01*
Y347500D01*
X186000Y360000D02*
X196000D01*
X176000D02*
X186000D01*
X166000D02*
X176000D01*
X119000Y347500D02*
X131500Y360000D01*
X166000D01*
X0Y0D02*
X265500D01*
X0Y385000D02*
X265500D01*
Y0D02*
Y385000D01*
X0Y0D02*
Y385000D01*
D35*
X55000Y105000D02*
D03*
X138000Y97500D02*
D03*
X166000Y360000D02*
D03*
X148500Y73500D02*
D03*
X95000Y325000D02*
D03*
X219000Y179000D02*
D03*
X181000Y229000D02*
D03*
X102500Y127000D02*
D03*
D36*
X100500Y105000D02*
D03*
X183500Y97500D02*
D03*
X176000Y360000D02*
D03*
X186000D02*
D03*
X196000D02*
D03*
X206000D02*
D03*
X194000Y73500D02*
D03*
X49500Y325000D02*
D03*
X173500Y179000D02*
D03*
X226500Y229000D02*
D03*
X73000D02*
D03*
Y239000D02*
D03*
X93500Y226500D02*
D03*
Y236500D02*
D03*
X27500Y288500D02*
D03*
X57000Y127000D02*
D03*
D37*
X61500Y308500D02*
D03*
X73000Y215000D02*
D03*
X93000Y163000D02*
D03*
D38*
X125500Y308500D02*
D03*
D39*
X206000Y211000D02*
D03*
X143000Y123000D02*
D03*
D40*
X107000Y244500D02*
D03*
X48000Y60000D02*
D03*
X206000Y201000D02*
D03*
X143000Y133000D02*
D03*
D44*
X42200Y347500D02*
D03*
D45*
X119000D02*
D03*
D46*
X73000Y164000D02*
D03*
X93000Y214000D02*
D03*
D47*
X27500Y334000D02*
D03*
D57*
X12500Y372500D02*
D03*
X253000D02*
D03*
Y12500D02*
D03*
X12500D02*
D03*
D58*
X121543Y68032D02*
D03*
Y71969D02*
D03*
X118000Y68032D02*
D03*
Y71969D02*
D03*
X114457Y68032D02*
D03*
Y71969D02*
D03*
D59*
X69500Y262433D02*
D03*
X74067D02*
D03*
Y267000D02*
D03*
X69500D02*
D03*
X71784Y264717D02*
D03*
D60*
X85500Y279500D02*
D03*
X105185D02*
D03*
X32658Y273000D02*
D03*
X52342D02*
D03*
X68500Y45815D02*
D03*
Y65500D02*
D03*
X65658Y84000D02*
D03*
X85343D02*
D03*
D61*
X77500Y254500D02*
D03*
X58000Y254000D02*
D03*
X190000Y214000D02*
D03*
X181500Y316500D02*
D03*
X114300Y265628D02*
D03*
X191941Y196874D02*
D03*
X148883Y192895D02*
D03*
X163775Y190036D02*
D03*
X139000Y77586D02*
D03*
D62*
X91500Y93500D02*
D03*
X164146Y223864D02*
D03*
M02*
