G04*
G04 #@! TF.GenerationSoftware,Altium Limited,Altium Designer,22.0.2 (36)*
G04*
G04 Layer_Color=16711935*
%FSLAX25Y25*%
%MOIN*%
G70*
G04*
G04 #@! TF.SameCoordinates,67E39877-474A-4780-B11E-DC456855A8CC*
G04*
G04*
G04 #@! TF.FilePolarity,Negative*
G04*
G01*
G75*
%ADD14C,0.01000*%
%ADD32C,0.06800*%
%ADD33R,0.25800X0.25800*%
%ADD34C,0.02769*%
%ADD35R,0.05500X0.05500*%
%ADD36C,0.05500*%
%ADD37C,0.05700*%
%ADD38R,0.05700X0.05700*%
%ADD39R,0.06000X0.06000*%
%ADD40C,0.06000*%
%ADD41R,0.06300X0.06300*%
%ADD42C,0.06300*%
%ADD43C,0.05753*%
%ADD44C,0.06200*%
%ADD45R,0.06200X0.06200*%
%ADD46R,0.05700X0.05700*%
%ADD47R,0.05500X0.05500*%
%ADD48C,0.05800*%
%ADD49C,0.05300*%
D14*
X0Y0D02*
X265500D01*
X0Y385000D02*
X265500D01*
Y0D02*
Y385000D01*
X0Y0D02*
Y385000D01*
D32*
X107000Y244500D02*
D03*
X48000Y60000D02*
D03*
D33*
X12500Y372500D02*
D03*
X253000D02*
D03*
Y12500D02*
D03*
X12500D02*
D03*
D34*
X121543Y68032D02*
D03*
Y71969D02*
D03*
X118000Y68032D02*
D03*
Y71969D02*
D03*
X114457Y68032D02*
D03*
Y71969D02*
D03*
D35*
X55000Y105000D02*
D03*
X138000Y97500D02*
D03*
X148500Y73500D02*
D03*
X95000Y325000D02*
D03*
X219000Y179000D02*
D03*
X181000Y229000D02*
D03*
X102500Y127000D02*
D03*
D36*
X100500Y105000D02*
D03*
X183500Y97500D02*
D03*
X194000Y73500D02*
D03*
X49500Y325000D02*
D03*
X173500Y179000D02*
D03*
X226500Y229000D02*
D03*
X73000D02*
D03*
Y239000D02*
D03*
X93500Y226500D02*
D03*
Y236500D02*
D03*
X27500Y288500D02*
D03*
X57000Y127000D02*
D03*
D37*
X61500Y308500D02*
D03*
X73000Y215000D02*
D03*
X93000Y163000D02*
D03*
D38*
X125500Y308500D02*
D03*
D39*
X206000Y211000D02*
D03*
X143000Y123000D02*
D03*
D40*
X206000Y201000D02*
D03*
X143000Y133000D02*
D03*
D41*
X166000Y360000D02*
D03*
D42*
X176000D02*
D03*
X186000D02*
D03*
X196000D02*
D03*
X206000D02*
D03*
D43*
X85500Y279500D02*
D03*
X105185D02*
D03*
X32658Y273000D02*
D03*
X52342D02*
D03*
X68500Y45815D02*
D03*
Y65500D02*
D03*
X65658Y84000D02*
D03*
X85343D02*
D03*
D44*
X42200Y347500D02*
D03*
D45*
X119000D02*
D03*
D46*
X73000Y164000D02*
D03*
X93000Y214000D02*
D03*
D47*
X27500Y334000D02*
D03*
D48*
X77500Y254500D02*
D03*
X58000Y254000D02*
D03*
X190000Y214000D02*
D03*
X181500Y316500D02*
D03*
X114300Y265628D02*
D03*
X191941Y196874D02*
D03*
X148883Y192895D02*
D03*
X163775Y190036D02*
D03*
X139000Y77586D02*
D03*
D49*
X91500Y93500D02*
D03*
X164146Y223864D02*
D03*
M02*
