G04*
G04 #@! TF.GenerationSoftware,Altium Limited,Altium Designer,22.0.2 (36)*
G04*
G04 Layer_Color=16711935*
%FSLAX25Y25*%
%MOIN*%
G70*
G04*
G04 #@! TF.SameCoordinates,67E39877-474A-4780-B11E-DC456855A8CC*
G04*
G04*
G04 #@! TF.FilePolarity,Positive*
G04*
G01*
G75*
%ADD14C,0.01000*%
G36*
X123600Y336550D02*
X37600D01*
Y358450D01*
X123600D01*
Y336550D01*
D02*
G37*
G36*
X99250Y318600D02*
X45250D01*
Y331400D01*
X99250D01*
Y318600D01*
D02*
G37*
G36*
X129850Y299000D02*
X57150D01*
Y318000D01*
X129850D01*
Y299000D01*
D02*
G37*
G36*
X33900Y284250D02*
X21100D01*
Y338250D01*
X33900D01*
Y284250D01*
D02*
G37*
G36*
X172700Y228200D02*
X154300D01*
Y243800D01*
X172700D01*
Y228200D01*
D02*
G37*
G36*
X80800Y226200D02*
X65200D01*
Y241800D01*
X80800D01*
Y226200D01*
D02*
G37*
G36*
X101300Y223700D02*
X85700D01*
Y239300D01*
X101300D01*
Y223700D01*
D02*
G37*
G36*
X230750Y222600D02*
X176750D01*
Y235400D01*
X230750D01*
Y222600D01*
D02*
G37*
G36*
X211450Y195250D02*
X200550D01*
Y216750D01*
X211450D01*
Y195250D01*
D02*
G37*
G36*
X223250Y172600D02*
X169250D01*
Y185400D01*
X223250D01*
Y172600D01*
D02*
G37*
G36*
X79400Y159650D02*
X66600D01*
Y219350D01*
X79400D01*
Y159650D01*
D02*
G37*
G36*
X99400Y158650D02*
X86600D01*
Y218350D01*
X99400D01*
Y158650D01*
D02*
G37*
G36*
X106750Y120600D02*
X52750D01*
Y133400D01*
X106750D01*
Y120600D01*
D02*
G37*
G36*
X148450Y117250D02*
X137550D01*
Y138750D01*
X148450D01*
Y117250D01*
D02*
G37*
G36*
X104750Y98600D02*
X50750D01*
Y111400D01*
X104750D01*
Y98600D01*
D02*
G37*
G36*
X187750Y91100D02*
X133750D01*
Y103900D01*
X187750D01*
Y91100D01*
D02*
G37*
G36*
X198250Y67100D02*
X144250D01*
Y79900D01*
X198250D01*
Y67100D01*
D02*
G37*
G36*
X36996Y39682D02*
X22596D01*
Y58381D01*
X36996D01*
Y39682D01*
D02*
G37*
D14*
X0Y0D02*
X265500D01*
X0Y385000D02*
X265500D01*
Y0D02*
Y385000D01*
X0Y0D02*
Y385000D01*
M02*
