G04*
G04 #@! TF.GenerationSoftware,Altium Limited,Altium Designer,21.7.2 (23)*
G04*
G04 Layer_Color=2752767*
%FSAX25Y25*%
%MOIN*%
G70*
G04*
G04 #@! TF.SameCoordinates,7BE8DB0F-7713-4745-BEA7-099FA81AE675*
G04*
G04*
G04 #@! TF.FilePolarity,Positive*
G04*
G01*
G75*
%ADD18C,0.00200*%
D18*
X0039200Y-0040800D02*
Y-0039200D01*
X0040800D01*
Y-0040800D01*
X0039200D01*
X-0010800Y-0020800D02*
Y-0019200D01*
X-0009200D01*
Y-0020800D01*
X-0010800D01*
Y-0030800D02*
Y-0029200D01*
X-0009200D01*
Y-0030800D01*
X-0010800D01*
X-0000800Y-0050800D02*
Y-0049200D01*
X0000800D01*
Y-0050800D01*
X-0000800D01*
X0009200D02*
Y-0049200D01*
X0010800D01*
Y-0050800D01*
X0009200D01*
X0029200D02*
Y-0049200D01*
X0030800D01*
Y-0050800D01*
X0029200D01*
X0019200D02*
Y-0049200D01*
X0020800D01*
Y-0050800D01*
X0019200D01*
X0039200Y-0030800D02*
Y-0029200D01*
X0040800D01*
Y-0030800D01*
X0039200D01*
Y-0020800D02*
Y-0019200D01*
X0040800D01*
Y-0020800D01*
X0039200D01*
X0029200Y-0000800D02*
Y0000800D01*
X0030800D01*
Y-0000800D01*
X0029200D01*
X0019200D02*
Y0000800D01*
X0020800D01*
Y-0000800D01*
X0019200D01*
X0009200D02*
Y0000800D01*
X0010800D01*
Y-0000800D01*
X0009200D01*
X-0000800D02*
Y0000800D01*
X0000800D01*
Y-0000800D01*
X-0000800D01*
X-0010800Y-0040800D02*
Y-0039200D01*
X-0009200D01*
Y-0040800D01*
X-0010800D01*
M02*
